<svg xmlns="http://www.w3.org/2000/svg" xmlns:xlink="http://www.w3.org/1999/xlink" width="2000" height="1333.333" xmlns:v="https://vecta.io/nano"><style><![CDATA[.W{opacity:.3}.X{fill:#fff}.Y{opacity:.5}.Z{fill:#ffcebf}.a{opacity:.05}.b{fill:#ffc7b5}.c{fill:#f2f2f2}.d{fill:#593d5a}.e{fill:#bdbff2}.f{fill:#e0467b}.g{fill:#ff9045}]]></style><defs><clipPath id="A"><path d="M0 1000h1500V0H0z"/></clipPath><clipPath id="B"><path d="M513.934 670.592h223.291v-70.741H513.934z"/></clipPath><clipPath id="C"><path d="M310.54 766.167h153.138v-76.348H310.54z"/></clipPath><clipPath id="D"><path d="M1051.02 662.32h183.21v-66.451h-183.21z"/></clipPath><clipPath id="E"><path d="M729.94 740.575h152.03v-63.74H729.94z"/></clipPath><clipPath id="F"><path d="M425.81 788.933h95.327v-57.066H425.81z"/></clipPath><clipPath id="G"><path d="M180.523 596.777h129.01v-87.059h-129.01z"/></clipPath><clipPath id="H"><path d="M1194.78 545.793h125.4v-65.884h-125.4z"/></clipPath><linearGradient x1="488.049" y1="69.928" x2="481.962" y2="232.836" spreadMethod="pad" id="I" xlink:href="#AB"><stop offset="0" stop-color="#068cc9"/><stop offset="1" stop-color="#0bd0c8"/></linearGradient><clipPath id="J"><path d="M0 1000h1500V0H0z"/></clipPath><clipPath id="K"><path d="M461.711 233.546h57.601V74.787h-57.601z"/></clipPath><clipPath id="L"><path d="M429.925 254.707h75.213V75.248h-75.213z"/></clipPath><linearGradient x1="0" y1="0" x2="1" y2="0" gradientTransform="matrix(-26.922131,310.07401,310.07401,26.922131,296.0144,70.530815)" spreadMethod="pad" id="M" xlink:href="#AB"><stop offset="0" stop-color="#0b98c3"/><stop offset="1" stop-color="#0bd1b9"/></linearGradient><clipPath id="N"><path d="M0 1000h1500V0H0z"/></clipPath><clipPath id="O"><path d="M218.111 436.125h190.396V74.368H218.111z"/></clipPath><clipPath id="P"><path d="M228.152 399.71h90.419V73.934h-90.419z"/></clipPath><linearGradient x1="0" y1="0" x2="1" y2="0" gradientTransform="matrix(144.92783,333.09814,333.09814,-144.92783,1158.2582,69.145012)" spreadMethod="pad" id="Q" xlink:href="#AB"><stop offset="0" stop-color="#068cc9"/><stop offset="1" stop-color="#0bd0c8"/></linearGradient><clipPath id="R"><path d="M0 1000h1500V0H0z"/></clipPath><clipPath id="S"><path d="M1145.4 421.506h124.23V73.051H1145.4z"/></clipPath><clipPath id="T"><path d="M1179.28 466.084h148.15V70.974h-148.15z"/></clipPath><linearGradient x1="342.35" y1="312.649" x2="567.88" y2="312.649" spreadMethod="pad" id="U" xlink:href="#AB"><stop offset="0" stop-color="#454694"/><stop offset="1" stop-color="#5c5e9c"/></linearGradient><linearGradient x1="549.436" y1="312.649" x2="862.909" y2="312.649" spreadMethod="pad" id="V" xlink:href="#AB"><stop offset="0" stop-color="#454694"/><stop offset="1" stop-color="#5c5e9c"/></linearGradient><linearGradient x1="892.703" y1="312.649" x2="1202.024" y2="312.649" spreadMethod="pad" id="W" xlink:href="#AB"><stop offset="0" stop-color="#454694"/><stop offset="1" stop-color="#5c5e9c"/></linearGradient><clipPath id="X"><path d="M0 1000h1500V0H0z"/></clipPath><clipPath id="Y"><path d="M398.005 551.392h786.935V73.902H398.005z"/></clipPath><clipPath id="Z"><path d="M989.938 736.168H1007v-20.415h-17.062z"/></clipPath><clipPath id="a"><path d="M1001.42 713.878h45.54V582.842h-45.54z"/></clipPath><linearGradient x1="949.766" y1="663.653" x2="923.932" y2="652.217" spreadMethod="pad" id="b" xlink:href="#AB"><stop offset="0" stop-color="#6da9ef"/><stop offset="1" stop-color="#6e87ee"/></linearGradient><clipPath id="c"><path d="M0 1000h1500V0H0z"/></clipPath><clipPath id="d"><path d="M948.248 670.272h69.792V621.55h-69.792z"/></clipPath><clipPath id="e"><path d="M1012.96 789.519h66.96V673.828h-66.96z"/></clipPath><clipPath id="f"><path d="M1168.5 435.351h102.89V76.288H1168.5z"/></clipPath><clipPath id="g"><path d="M1142.63 468.984h20.76V449.88h-20.76z"/></clipPath><clipPath id="h"><path d="M1157.35 94.893h44V71.854h-44z"/></clipPath><clipPath id="i"><path d="M1089.51 97.441h43.32V71.178h-43.32z"/></clipPath><clipPath id="j"><path d="M1248.79 420.687h16.69v-23.346h-16.69z"/></clipPath><linearGradient x1="1242.43" y1="422.767" x2="1270.846" y2="422.767" spreadMethod="pad" id="k" xlink:href="#AB"><stop offset="0" stop-color="#6da9ef"/><stop offset="1" stop-color="#6e87ee"/></linearGradient><clipPath id="l"><path d="M0 1000h1500V0H0z"/></clipPath><clipPath id="m"><path d="M1115.58 343.344h81.61v-71.391h-81.61z"/></clipPath><clipPath id="n"><path d="M321.261 512.831h52.603V73.904h-52.603z"/></clipPath><clipPath id="o"><path d="M267.907 303.02h80.57V84.477h-80.57z"/></clipPath><clipPath id="p"><path d="M269.447 370.66h31.855v-57.687h-31.855z"/></clipPath><clipPath id="q"><path d="M301.979 469.855h23.595v-24.608h-23.595z"/></clipPath><clipPath id="r"><path d="M304.667 441.754h59.487V334.806h-59.487z"/></clipPath><clipPath id="s"><path d="M370.658 738.634h15.989v-23.143h-15.989z"/></clipPath><clipPath id="t"><path d="M342.351 700.475h56.045V590.192h-56.045z"/></clipPath><clipPath id="u"><path d="M382.529 574.854h190.712v-25.357H382.529z"/></clipPath><clipPath id="v"><path d="M382.346 674.427h70.177v-50.055h-70.177z"/></clipPath><clipPath id="w"><path d="M381.002 714.176h23.886v-43.584h-23.886z"/></clipPath><clipPath id="x"><path d="M342.35 621.036h166.105V549.61H342.35z"/></clipPath><clipPath id="y"><path d="M837.637 807.462h112.881v-71.046H837.637z"/></clipPath><path id="z" d="M456.223 772.988c0-4.333-3.512-7.845-7.845-7.845s-7.845 3.512-7.845 7.845 3.512 7.846 7.845 7.846 7.845-3.513 7.845-7.846"/><path id="AA" d="M1237.458 520.513h-5.521l-1.65 32.301h8.789zm-7.552-10.122c0 1.565.413 2.756 1.238 3.57s1.999 1.222 3.522 1.222c1.502 0 2.654-.424 3.459-1.27s1.205-2.02 1.205-3.522-.407-2.691-1.222-3.569-1.962-1.317-3.442-1.317c-1.502 0-2.671.423-3.506 1.269s-1.254 2.051-1.254 3.617"/><linearGradient id="AB" gradientUnits="userSpaceOnUse"/></defs><g transform="matrix(1.333333 0 0 -1.333333 0 1333.3333)"><path d="M0 0h1500v1000H0z" class="X"/><g clip-path="url(#A)"><g fill="#cfdfff"><path d="M654.388 859.281c14.428 16.101 31.425 29.949 50.117 40.991 9.387 5.447 19.084 10.381 29.1 14.601 10.025 4.191 20.304 7.77 30.738 10.81l3.92 1.121 1.96.561 1.976.499 7.909 1.985 7.966 1.738c2.651.608 5.337 1.02 8.006 1.539 10.698 1.924 21.475 3.448 32.303 4.402 21.649 2.071 43.434 2.276 65.138 1.306 21.71-1.005 43.414-3.515 64.772-8.032 21.348-4.514 42.313-11.301 62.124-20.687 9.907-4.675 19.529-9.965 28.78-15.852 9.237-5.909 18.104-12.413 26.49-19.511 16.713-14.224 31.611-30.863 42.806-50.027l-4.182 1.868c13.83 2.904 27.93 4.46 42.039 4.707 14.106.165 28.221-.742 42.142-2.898 27.85-4.328 54.876-13.044 80.284-24.99 25.423-11.946 49.208-27.333 70.516-45.652 10.594-9.228 20.619-19.152 29.641-29.982 2.229-2.73 4.476-5.445 6.563-8.292 2.173-2.778 4.141-5.717 6.171-8.605 3.886-5.896 7.583-11.977 10.708-18.304 6.417-12.584 11.372-25.805 15.334-39.255 3.965-13.457 6.937-27.164 9.13-40.97 2.205-13.806 3.567-27.724 4.286-41.656s.773-27.892.232-41.816c-.516-13.928-1.752-27.817-3.531-41.624-1.79-13.807-4.153-27.535-7.141-41.121-3.01-13.581-6.625-27.023-10.904-40.246-4.299-13.213-9.292-26.198-15.029-38.832 5.329 12.813 9.86 25.936 13.748 39.229 3.908 13.29 7.142 26.766 9.77 40.35 5.302 27.161 8.212 54.759 8.822 82.375.59 27.612-1.195 55.276-5.833 82.419-2.331 13.564-5.423 26.991-9.467 40.101s-9.034 25.915-15.383 37.978c-3.096 6.081-6.647 11.854-10.439 17.509-1.982 2.769-3.894 5.585-6.019 8.256-2.035 2.734-4.233 5.347-6.411 7.974-8.82 10.426-18.65 20.012-29.04 28.925-10.433 8.871-21.532 16.963-33.068 24.355-11.527 7.409-23.546 14.064-35.964 19.854-24.814 11.591-51.162 20.003-78.184 24.132l-10.157 1.329-5.094.508c-1.698.179-3.396.347-5.101.425-3.406.178-6.809.496-10.22.504-3.41.067-6.82.186-10.228.106-13.632-.203-27.239-1.673-40.572-4.436l-2.765-.573-1.416 2.442c-10.581 18.241-24.886 34.306-40.993 48.129-8.059 6.928-16.609 13.302-25.535 19.108a254.36 254.36 0 0 1-27.859 15.621c-19.185 9.302-39.598 15.986-60.459 20.707-20.881 4.69-42.228 7.44-63.676 8.702-21.453 1.184-43.001 1.402-64.425-.278-10.719-.756-21.391-2.077-31.994-3.793-2.643-.467-5.309-.827-7.936-1.381l-7.907-1.551-7.856-1.788-1.964-.449-1.948-.511-3.897-1.022c-10.378-2.774-20.617-6.086-30.627-10.011-9.99-3.974-19.729-8.576-29.176-13.728-18.786-10.481-36.138-23.674-51.091-39.293M145.292 307.673c-24.649 28.132-43.917 61.05-57.012 96.286-13.036 35.263-20.006 72.886-19.998 110.649-.032 37.741 6.776 75.481 19.623 111.035 13.057 35.509 32.442 68.57 56.377 97.822 12.093 14.536 25.406 28.023 39.596 40.483 3.583 3.076 7.063 6.275 10.828 9.133l5.554 4.397c1.864 1.448 3.666 2.978 5.613 4.318l11.501 8.273 11.876 7.723c16.042 9.968 32.846 18.691 50.224 26.051l6.546 2.691c2.18.901 4.354 1.819 6.59 2.574l13.335 4.738 13.539 4.106a49.67 49.67 0 0 0 3.409.939l3.428.869 6.855 1.737c18.343 4.352 37.008 7.313 55.786 8.693l7.048.414 3.523.207c1.175.072 2.348.149 3.526.141l14.11.168c9.407-.042 18.805-.538 28.163-1.374 9.354-.863 18.68-2.128 27.916-3.699 9.242-1.567 18.444-3.379 27.559-5.558 18.238-4.294 36.167-9.946 53.38-17.244-8.762 3.254-17.653 6.129-26.651 8.595-8.982 2.52-18.064 4.656-27.203 6.483-9.142 1.815-18.328 3.384-27.556 4.66-9.231 1.29-18.471 2.266-27.75 2.847-18.543 1.208-37.169.948-55.63-.865-18.459-1.793-36.773-4.924-54.714-9.526-17.953-4.553-35.494-10.655-52.452-18.04a357.52 357.52 0 0 1-48.935-26.011c-15.65-9.849-30.391-21.108-44.26-33.314-13.847-12.235-26.811-25.477-38.595-39.707-23.505-28.494-42.455-60.755-55.453-95.348-6.454-17.307-11.431-35.166-14.844-53.328l-1.271-6.815c-.235-1.132-.382-2.278-.533-3.424l-.465-3.435-.93-6.871-.461-3.436-.303-3.454-1.175-13.825c-.144-2.31-.209-4.622-.318-6.934l-.142-3.468-.046-3.468c-1.104-74.025 24.076-148.452 70.792-206.888m1130.814-34.828c10.119-62.533 11.84-128.657-13.03-187.132-1.691-3.98-3.531-7.912-5.521-11.786-1.97-3.873-12.133-4.432-14.392-8.18-118.75-2.116-290.084-1.027-494.824-1.027l-497.832 3.974c-4.13 3.524-24.651 1.117-28.451 5.03l-1.79 1.863c-50.29 53.31-62.42 147.055-24.071 209.403-70.38 58.387-108.949 150.792-104.5 241.353l.14 2.719c9.92 181.849 183.304 322.966 371.844 296.607 90.86-12.708 132.49-44.887 163.016-70.672 4.531 54.543 43.321 102.639 92.02 129.191s106.021 33.98 161.62 32.32c43.72-1.311 87.911-8.136 127.451-26.456 39.549-18.32 79.88-50.873 96.66-90.58 109.779 32.55 234.862-41.35 274.61-112.718 65.46-117.534 22.577-383.028-102.95-413.909"/></g><g class="X"><g clip-path="url(#B)" class="Y"><path d="M736.989 599.851H513.934c1.062 9.745 8.342 18.966 19.192 24.049s24.876 5.909 36.604 2.157c.31 9.616.699 19.518 5.734 28.322s15.922 16.343 28.414 16.211c11.038-.117 20.8-6.178 26.318-13.541s7.569-15.916 9.533-24.281c9.749 6.665 24.338 8.813 36.592 5.389s21.659-12.275 23.591-22.202c7.672 4.736 19.078 5.531 27.729 1.931s10.289-10.498 9.348-18.035"/></g><g clip-path="url(#C)" opacity=".4"><path d="M341.03 689.831c-5.545-.04-11.18-.068-16.51 1.461s-10.408 4.864-12.725 9.902c-4.208 9.15 2.739 20.524 12.225 23.908s20.126.61 29.11-3.939c-10.013 6.995-13.406 21.945-7.395 32.578s20.572 15.431 31.727 10.457 17.317-19.012 13.426-30.589c3.715 12.499 18.653 20.366 31.061 16.357s19.92-19.127 15.62-31.437c7.636 2.04 16.859 3.712 22.546-1.778 4.858-4.689 4.519-13.159.371-18.486-5.028-9.568-40.021-7.713-48.125-7.921-23.756-.61-47.568-.342-71.331-.513"/></g><g clip-path="url(#D)" opacity=".4"><path d="M1232.521 595.869h-181.498c.864 7.93 6.788 24.322 15.616 28.458s20.242 4.809 29.784 1.755c.253 7.825.571 15.882 4.666 23.045s12.956 13.299 23.12 13.191c8.982-.095 16.925-5.027 21.416-11.018s6.159-12.951 7.757-19.757c7.932 5.423 19.803 7.171 29.774 4.385s17.625-9.989 19.196-18.066c6.242 3.854 15.523 4.501 22.563 1.571 9.854-4.37 10.969-17.753 7.606-23.564"/></g><g clip-path="url(#E)" opacity=".4"><path d="M750.293 676.839c-5.341-.035-11.111.089-15.429 3.898-6.342 5.597-6.474 18.119-.872 24.533s15.238 6.413 21.676.974c2.051 9.533 5.761 18.77 11.83 25.423s14.719 10.403 22.89 8.342 15.31-10.65 15.681-20.521c9.92 10.747 25.196 13.992 37.848 8.039 4.557-2.145 8.842-5.474 11.719-10.196s4.191-10.95 2.779-16.461c4.458 1.943 9.44 2.758 14.02 1.082s8.622-6.205 9.371-11.808c1.471-10.996-7.233-12.488-14.031-12.533l-117.482-.772"/></g><path d="M471.969 805.335c-27.155 0-49.168-14.798-49.168-33.051 0-7.537 3.761-14.482 10.08-20.042l-7.07-20.376 21.1 11.982c7.34-2.929 15.904-4.616 25.058-4.616 27.155 0 49.168 14.798 49.168 33.052s-22.013 33.051-49.168 33.051"/></g><g clip-path="url(#F)" class="a"><path d="M514.437 788.933c-12.148-19.222-45.127-33.191-84.319-33.981a36.52 36.52 0 0 1 2.762-2.71l-7.069-20.375 21.1 11.982c7.339-2.929 15.904-4.616 25.058-4.616 27.155 0 49.168 14.798 49.168 33.051 0 6.073-2.448 11.759-6.7 16.649"/></g><g class="e"><use xlink:href="#z"/><path d="M479.814 772.988c0-4.333-3.512-7.845-7.845-7.845s-7.845 3.512-7.845 7.845 3.512 7.846 7.845 7.846 7.845-3.513 7.845-7.846m23.591 0c0-4.333-3.512-7.845-7.845-7.845s-7.845 3.512-7.845 7.845 3.512 7.846 7.845 7.846 7.845-3.513 7.845-7.846"/></g><path d="M309.533 575.912c0 24.859-29.979 45.011-66.958 45.011s-66.959-20.152-66.959-45.011 29.978-45.01 66.959-45.01c2.633 0 5.226.113 7.78.312l26.203-21.496-4.263 25.86c22.064 7.361 37.238 22.653 37.238 40.334" class="X"/><g class="e"><path d="M224.675 553.916c0 3.457 1.683 5.186 5.047 5.186 1.649 0 2.908-.453 3.778-1.357s1.305-2.181 1.305-3.829c0-1.625-.442-2.913-1.322-3.862s-2.135-1.426-3.761-1.426-2.873.464-3.742 1.391-1.305 2.226-1.305 3.897m1.408 10.954v2.198c0 2.518.457 4.613 1.373 6.284s2.518 3.399 4.807 5.185c2.725 2.151 4.482 3.822 5.271 5.014s1.185 2.609 1.185 4.258c0 1.922-.641 3.399-1.923 4.429s-3.124 1.545-5.528 1.545c-2.176 0-4.19-.308-6.044-.927a42.99 42.99 0 0 1-5.425-2.232l-2.885 6.044c4.647 2.586 9.626 3.88 14.938 3.88 4.486 0 8.046-1.099 10.679-3.297s3.949-5.231 3.949-9.1c0-1.716-.252-3.245-.756-4.584s-1.265-2.615-2.283-3.828-2.776-2.794-5.271-4.739c-2.129-1.671-3.554-3.056-4.275-4.155s-1.082-2.575-1.082-4.43v-1.545zm36.997 0h-5.975l-1.786 34.957h9.512zm-8.173-10.954c0 1.694.446 2.981 1.34 3.863s2.163 1.322 3.811 1.322c1.625 0 2.873-.458 3.743-1.374s1.305-2.186 1.305-3.811-.441-2.913-1.322-3.862-2.124-1.426-3.726-1.426c-1.625 0-2.89.458-3.794 1.374s-1.357 2.22-1.357 3.914"/></g><g clip-path="url(#G)" class="a"><path d="M309.533 575.912c0 7.533-2.767 14.627-7.633 20.866-.288-24.772-35.554-44.803-79.021-44.803-15.584 0-30.114 2.577-42.356 7.021 9.948-16.473 33.974-28.094 62.052-28.094 2.633 0 5.226.113 7.78.312l26.203-21.495-4.263 25.86c22.064 7.36 37.238 22.652 37.238 40.333"/></g><path d="M1255.502 568.016c-35.722 0-64.68-17.201-64.68-38.42 0-8.722 4.901-16.762 13.146-23.211l-9.187-26.475 28.714 16.305c9.441-3.201 20.36-5.039 32.007-5.039 35.722 0 64.68 17.201 64.68 38.42s-28.958 38.42-64.68 38.42" class="X"/><g class="e"><use xlink:href="#AA"/><path d="M1257.335 520.513h-5.521l-1.65 32.301h8.789zm-7.552-10.122c0 1.565.413 2.756 1.238 3.57s1.999 1.222 3.522 1.222c1.502 0 2.654-.424 3.459-1.27s1.205-2.02 1.205-3.522-.407-2.691-1.222-3.569-1.962-1.317-3.442-1.317c-1.502 0-2.671.423-3.506 1.269s-1.254 2.051-1.254 3.617m27.429 10.122h-5.521l-1.65 32.301h8.789zm-7.552-10.122c0 1.565.413 2.756 1.238 3.57s1.999 1.222 3.522 1.222c1.502 0 2.654-.424 3.459-1.27s1.205-2.02 1.205-3.522-.407-2.691-1.222-3.569-1.962-1.317-3.442-1.317c-1.502 0-2.671.423-3.506 1.269s-1.254 2.051-1.254 3.617"/></g><g clip-path="url(#H)" class="a"><path d="M1314.153 545.793c-10.694-21.906-46.943-38.03-90.024-38.03-8.181 0-16.115.583-23.674 1.675 1.093-1.051 2.259-2.072 3.512-3.053l-9.186-26.475 28.714 16.305c9.44-3.201 20.359-5.039 32.007-5.039 35.721 0 64.679 17.201 64.679 38.42 0 5.789-2.168 11.274-6.028 16.197"/></g><path d="M1093.175 784.3c-2.559-23.48 4.699-47.62 19.221-65.946.904-1.148 1.79-2.31 2.791-3.377.983-1.08 1.922-2.202 2.939-3.248l3.121-3.072c1.04-1.024 2.195-1.924 3.284-2.892.558-.47 1.095-.965 1.668-1.415l1.751-1.312c1.183-.853 2.297-1.801 3.547-2.557l3.666-2.386 3.815-2.14c5.153-2.723 10.536-5.02 16.11-6.729a99.71 99.71 0 0 1 17.091-3.515c5.793-.6 11.63-.641 17.423-.184 5.799.438 11.523 1.583 17.098 3.17 5.589 1.566 10.986 3.803 15.977 6.686 4.977 2.893 9.532 6.53 13.1 10.977 3.601 4.417 6.018 9.69 6.939 15.283.93 5.555.351 11.415-2.131 16.391-1.24 2.477-2.914 4.73-5.003 6.543-2.076 1.826-4.499 3.258-7.094 4.276s-5.36 1.634-8.16 1.861c-2.803.195-5.633.008-8.382-.553s-5.423-1.478-7.891-2.788c-2.475-1.346-4.775-3.015-6.852-4.937-4.165-3.841-7.425-8.666-9.709-13.909-4.664-10.495-5.384-22.556-2.915-33.783 1.253-5.622 3.265-11.09 6.087-16.119 1.354-2.548 3.009-4.916 4.71-7.239 1.806-2.241 3.658-4.452 5.788-6.404 4.16-3.997 8.908-7.381 14.001-10.152 5.081-2.797 10.471-5.057 16.019-6.854 11.119-3.597 22.757-5.41 34.445-6.658 11.692-1.283 23.483-2.113 35.175-3.955 11.66-1.876 23.286-4.861 33.898-10.172 5.29-2.645 10.379-5.758 14.887-9.598 4.508-3.825 8.492-8.275 11.643-13.261-6.574 9.847-16.278 17.191-26.876 22.143-10.619 5.062-22.161 7.792-33.772 9.435-11.633 1.671-23.393 2.378-35.15 3.523-11.745 1.116-23.561 2.806-34.948 6.344-5.686 1.768-11.245 4.019-16.525 6.847-5.281 2.821-10.224 6.33-14.586 10.48-2.227 2.028-4.186 4.34-6.081 6.678-1.79 2.421-3.528 4.893-4.954 7.549-2.969 5.245-5.093 10.947-6.426 16.82-1.371 5.87-1.753 11.956-1.341 17.975a53.64 53.64 0 0 0 4.295 17.55c2.399 5.562 5.848 10.736 10.339 14.913 2.24 2.087 4.737 3.916 7.437 5.397 2.738 1.465 5.684 2.501 8.708 3.112a34.13 34.13 0 0 0 9.206.57c3.075-.261 6.122-.946 9.006-2.091s5.599-2.759 7.943-4.837c2.357-2.065 4.261-4.644 5.643-7.438 2.774-5.632 3.35-12.088 2.321-18.121-1.008-6.049-3.701-11.829-7.573-16.531-3.84-4.748-8.678-8.563-13.889-11.567-5.228-2.992-10.82-5.278-16.586-6.873-1.422-.472-2.884-.79-4.342-1.124-1.459-.327-2.906-.715-4.389-.915l-4.429-.708-4.462-.431c-5.962-.401-11.952-.288-17.882.396a102.04 102.04 0 0 0-17.456 3.801c-5.682 1.815-11.157 4.226-16.389 7.069l-3.87 2.232-3.716 2.479c-1.266.788-2.396 1.768-3.591 2.653l-1.771 1.361c-.579.466-1.123.977-1.686 1.463-4.545 3.847-8.602 8.248-12.2 12.972-1.856 2.322-3.435 4.845-5.067 7.321l-2.229 3.853c-.768 1.27-1.356 2.638-2.041 3.951-2.585 5.33-4.793 10.861-6.286 16.593-1.513 5.718-2.614 11.556-3.007 17.457a93.2 93.2 0 0 0 .565 17.667" class="X"/><path d="M1325.272 614.879l21.242 4.866 2.777 21.614 18.565-40.972z" class="c"/><g class="X"><path d="M1325.272 614.879l21.242 4.866 21.342-19.358zm-503.37-67.606c1.251 4.156 2.32 8.366 3.111 12.624.8 4.253 1.347 8.557 1.458 12.873.223 8.604-1.266 17.333-5.254 24.929-3.888 7.634-9.796 14.108-16.589 19.3-6.813 5.211-14.499 9.207-22.555 12.175-16.171 5.962-33.393 8.498-50.352 12.494-8.484 2.013-16.926 4.444-25.039 7.854-8.091 3.414-15.865 7.868-22.526 13.76s-11.981 13.242-15.718 21.268c-3.752 8.032-5.97 16.714-6.844 25.482-.874 8.777-.423 17.659 1.211 26.303 1.623 8.649 4.484 17.067 8.535 24.877 8.085 15.625 19.991 28.957 33.581 39.838 6.824 5.431 14.068 10.3 21.57 14.698 7.497 4.411 15.272 8.32 23.215 11.822-15.587-7.605-30.607-16.525-43.854-27.659-6.637-5.53-12.843-11.578-18.337-18.218-5.498-6.629-10.281-13.844-14.117-21.525-7.554-15.357-10.863-32.849-9.088-49.857.891-8.491 3.082-16.855 6.723-24.542 3.626-7.685 8.747-14.65 15.112-20.246 6.329-5.659 13.791-10.001 21.656-13.368 7.884-3.362 16.17-5.801 24.556-7.837 8.395-2.033 16.914-3.696 25.402-5.631 8.488-1.917 16.962-4.171 25.131-7.366 8.173-3.159 15.997-7.38 22.897-12.834 6.879-5.438 12.88-12.188 16.74-20.138 3.91-7.946 5.185-16.923 4.734-25.611-.464-8.733-2.573-17.257-5.359-25.465"/></g><path d="M726.485 795.611l3.186 21.558-19.128 10.441 44.917 2.408z" class="c"/><g class="X"><path d="M726.485 795.611l3.186 21.558 25.789 12.849zm543.559-80.029l-1.094 1.1 11.992 11.921 1.093-1.101z"/><path d="M1280.903 715.549l-11.921 11.992 1.101 1.094 11.92-11.992zM159.364 398.209l-1.551.005.051 16.908 1.551-.005z"/><path d="M167.065 405.864l-16.908.051.004 1.552 16.909-.051zm854.401-236.053l-1.552.004.051 16.909 1.552-.005z"/><path d="M1029.167 177.466l-16.908.051.005 1.551 16.908-.05zM851.19 239.765l-1.551.005.051 16.908 1.551-.004z"/><path d="M858.892 247.421l-16.909.051.005 1.551 16.908-.051zM501.76 400.956l-1.094 1.101 11.992 11.92 1.094-1.1z"/><path d="M512.619 400.924l-11.92 11.992 1.1 1.094 11.92-11.992zM988.578 827.67l-1.552.004.051 16.909 1.551-.004z"/><path d="M996.279 835.326l-16.908.051.004 1.551 16.909-.051zM204.501 489.533c-3.603 0-6.534-2.931-6.534-6.534s2.931-6.534 6.534-6.534 6.535 2.93 6.535 6.534-2.932 6.534-6.535 6.534m0-14.496c-4.39 0-7.962 3.571-7.962 7.962s3.572 7.963 7.962 7.963 7.963-3.573 7.963-7.963-3.572-7.962-7.963-7.962m645.938-100.261c-3.603 0-6.533-2.932-6.533-6.535a6.54 6.54 0 0 1 6.533-6.533c3.604 0 6.535 2.93 6.535 6.533s-2.931 6.535-6.535 6.535m0-14.497c-4.39 0-7.962 3.572-7.962 7.962s3.572 7.964 7.962 7.964 7.964-3.573 7.964-7.964-3.572-7.962-7.964-7.962m-144.356-42.025c-1.887 4.012-4.619 7.05-8.54 8.718 4.325 1.482 6.985 4.565 8.718 8.54 1.608-4.193 4.606-6.942 8.54-8.718-4.193-1.804-7.311-4.478-8.718-8.54M573.152 712.205c-1.888 4.012-4.62 7.05-8.541 8.718 4.326 1.483 6.986 4.566 8.719 8.54 1.608-4.193 4.606-6.941 8.54-8.718-4.194-1.804-7.311-4.478-8.718-8.54m329.995-124.057c-1.888 4.012-4.619 7.051-8.54 8.718 4.325 1.483 6.985 4.566 8.718 8.541 1.608-4.193 4.606-6.942 8.541-8.718-4.195-1.804-7.312-4.479-8.719-8.541m452.401-33.936c-1.888 4.012-4.619 7.05-8.54 8.718 4.325 1.483 6.985 4.566 8.718 8.54 1.607-4.193 4.606-6.941 8.54-8.718-4.194-1.804-7.312-4.478-8.718-8.54"/><path d="M575.563 427.833l13.639 7.874-13.639 7.875zm16.497 7.874l-17.926-10.348v20.698zm747.62-37.398h-1.585v12.343h1.585zm0 20.313h-1.585v36.643h1.585zm7.328-11.957h-1.586v56.313h1.586zm-913.134-14.671h-1.585v12.343h1.585zm0 20.314h-1.585v36.642h1.585zm7.328-11.957h-1.585v56.313h1.585zm216.715-271.156l.007 1.775c4.108-.016 6.144-3.465 7.942-6.507 1.708-2.892 3.322-5.622 6.42-5.636s4.735 2.705 6.467 5.581c1.823 3.027 3.889 6.459 7.996 6.441s6.145-3.466 7.942-6.508c1.707-2.891 3.321-5.623 6.42-5.635s4.736 2.705 6.469 5.582c1.823 3.026 3.889 6.458 7.997 6.44s6.146-3.466 7.944-6.508c1.708-2.891 3.321-5.622 6.42-5.634l-.007-1.777c-4.108.018-6.145 3.465-7.943 6.507-1.708 2.893-3.322 5.623-6.421 5.636s-4.736-2.703-6.468-5.581c-1.824-3.028-3.891-6.458-7.998-6.442s-6.145 3.467-7.942 6.509c-1.708 2.892-3.322 5.622-6.42 5.636s-4.736-2.705-6.467-5.581c-1.823-3.027-3.889-6.459-7.996-6.442s-6.145 3.466-7.943 6.508c-1.707 2.892-3.321 5.623-6.419 5.636m177.708 756.364l.007 1.776c4.107-.018 6.144-3.466 7.942-6.508 1.707-2.892 3.322-5.623 6.42-5.636s4.735 2.705 6.467 5.581c1.823 3.027 3.89 6.459 7.996 6.441s6.145-3.466 7.942-6.508c1.707-2.892 3.322-5.622 6.419-5.635s4.738 2.704 6.47 5.582c1.823 3.026 3.889 6.457 7.996 6.44s6.147-3.465 7.945-6.508c1.708-2.891 3.321-5.622 6.42-5.635l-.007-1.776c-4.108.018-6.146 3.466-7.943 6.508-1.709 2.891-3.322 5.622-6.422 5.635s-4.735-2.704-6.467-5.581c-1.824-3.027-3.89-6.459-7.998-6.441s-6.145 3.466-7.943 6.508c-1.707 2.892-3.32 5.622-6.419 5.635s-4.735-2.704-6.468-5.581c-1.822-3.027-3.888-6.458-7.995-6.441s-6.145 3.466-7.942 6.508c-1.708 2.892-3.321 5.623-6.42 5.636"/><path d="M794.43 491.646l.007 1.776c4.108-.017 6.145-3.466 7.942-6.508 1.708-2.892 3.322-5.622 6.42-5.635s4.735 2.704 6.467 5.58c1.823 3.027 3.89 6.459 7.996 6.441s6.145-3.466 7.942-6.508c1.708-2.891 3.322-5.622 6.42-5.635s4.737 2.705 6.469 5.582c1.823 3.026 3.889 6.458 7.997 6.44s6.147-3.465 7.944-6.508c1.709-2.891 3.321-5.622 6.42-5.634l-.006-1.777c-4.109.018-6.146 3.466-7.944 6.508-1.708 2.892-3.322 5.622-6.421 5.635s-4.736-2.703-6.468-5.581c-1.824-3.027-3.89-6.458-7.997-6.441s-6.145 3.466-7.943 6.508c-1.708 2.892-3.321 5.622-6.42 5.636s-4.735-2.705-6.467-5.581c-1.823-3.027-3.889-6.459-7.996-6.442s-6.144 3.466-7.942 6.508c-1.707 2.893-3.321 5.623-6.42 5.636M330.913 647.525c-4.642 3.425-10.07 5.616-15.64 6.919-5.585 1.314-11.322 1.842-17.055 1.98-11.482.312-22.933-.879-34.432-1.598-11.484-.71-23.17-.837-34.617 1.392-2.861.535-5.681 1.292-8.469 2.15-2.784.885-5.5 1.983-8.154 3.221-2.626 1.303-5.18 2.745-7.596 4.45-2.366 1.751-4.662 3.622-6.668 5.786-2.021 2.142-3.906 4.432-5.475 6.94-.847 1.214-1.501 2.547-2.235 3.831-.607 1.352-1.304 2.666-1.779 4.076-1.095 2.762-1.781 5.69-2.131 8.654-.401 2.964-.269 5.994.193 8.953.9 5.963 3.787 11.529 7.799 15.957 4.023 4.434 9.256 7.806 15.066 9.447 11.694 3.293 24.856-.884 32.76-10.039 3.984-4.575 6.384-10.333 7.42-16.202 1.06-5.898.657-11.957-.703-17.73-1.404-5.794-4.029-11.207-7.236-16.131-3.25-4.918-7.146-9.345-11.358-13.383-8.463-8.081-18.192-14.486-27.649-20.982-4.731-3.256-9.427-6.537-13.888-10.087-4.413-3.602-8.725-7.342-12.677-11.455-3.951-4.105-7.757-8.365-11.177-12.932-3.455-4.533-6.717-9.23-9.581-14.168l-1.099-1.837-1.024-1.879-2.026-3.771c-1.257-2.563-2.548-5.112-3.652-7.747-1.2-2.593-2.163-5.284-3.218-7.939-.907-2.707-1.907-5.387-2.663-8.144-.86-2.726-1.505-5.511-2.199-8.283-.319-1.393-.577-2.799-.869-4.199l-.42-2.102-.335-2.118c-.97-5.637-1.461-11.35-1.706-17.066-.967-22.881 3.764-46.021 13.676-66.798-10.53 20.492-15.627 43.73-15.146 66.845.155 5.779.6 11.562 1.508 17.281l.313 2.148.4 2.134.83 4.263c.668 2.818 1.29 5.649 2.128 8.423.734 2.805 1.714 5.533 2.603 8.292 1.036 2.704 1.983 5.448 3.168 8.094 1.09 2.688 2.367 5.291 3.614 7.909.639 1.3 1.343 2.569 2.012 3.855l1.018 1.923 1.094 1.879c5.757 10.072 12.804 19.413 20.893 27.747 4.009 4.205 8.39 8.039 12.875 11.726 4.531 3.635 9.264 6.968 13.998 10.253 9.465 6.553 19.03 12.922 27.215 20.805 4.075 3.937 7.807 8.22 10.887 12.922 3.045 4.716 5.48 9.824 6.781 15.235 1.293 5.399 1.689 11.068.727 16.52-.939 5.428-3.118 10.689-6.705 14.836-7.099 8.336-19.266 12.251-29.853 9.278-10.57-2.931-19.32-12.304-21.047-23.207-.431-2.71-.573-5.492-.207-8.237l.102-1.031.195-1.021c.14-.678.233-1.366.41-2.037.373-1.336.712-2.684 1.229-3.98.425-1.327 1.072-2.569 1.624-3.85.682-1.218 1.279-2.486 2.069-3.644 1.456-2.391 3.222-4.588 5.12-6.648 1.883-2.085 4.05-3.889 6.282-5.585 2.268-1.642 4.719-3.066 7.232-4.35 2.545-1.224 5.158-2.319 7.851-3.209 2.699-.865 5.435-1.637 8.226-2.193 11.17-2.321 22.712-2.325 34.166-1.781 11.472.492 22.996 1.466 34.539.929 5.76-.253 11.537-.892 17.135-2.334 5.577-1.459 10.982-3.811 15.531-7.356"/></g><path d="M121.458 476.832l21.334-4.442 11.542 18.485-.223-44.981z" class="c"/><path d="M121.458 476.832l21.334-4.442 11.319-26.496z" class="X"/></g><path d="M500.83 254.641c-9.241-.744-15.315-7.421-17.143-14.392h0c-1.822-6.973-.461-14.414-.526-21.66h0c-.064-7.243-1.935-14.893-8.734-19.393h0c-5.538-3.664-13.937-4.971-17.467-9.942h0c-3.609-5.079-.616-11.788 2.51-17.563h0c3.125-5.778 6.384-12.355 3.224-17.632h0c-4.057-6.76-16.065-7.479-23.66-11.96h0c-8.51-5.018-10.698-14.666-8.05-23.289h0c2.639-8.624 9.319-16.445 16.291-23.792h0c6.697-7.055 14.275-14.197 24.472-17.788h0c2.645-.929 5.358-1.576 8.087-1.956h0l.198-.026h0c13.306-1.814 27.093 2.502 36.293 9.567h0c8.262 6.342 13.627 14.542 18.083 22.91h0c1.77 3.328 2.787 7.533 1.838 11.397h0c-1.076 4.416-3.44 7.545-8.087 10.266h0c-5.519 3.231-12.137 6.412-13.863 11.452h0c-2.264 6.597 5.178 11.87 12.08 15.353h0c6.898 3.487 14.817 7.979 13.919 14.663h0c-.677 5.037-6.214 9.089-9.718 13.588h0c-7.087 9.106-5.726 20.008-4.037 29.936h0c1.692 9.929 3.235 20.763-3.6 29.972h0c-3.502 4.717-9.582 8.666-16.113 9.929h0c-.561.108-1.125.198-1.689.264h0c-.879.106-1.763.162-2.648.162h0c-.554 0-1.107-.022-1.66-.066" fill="url(#I)"/><g clip-path="url(#J)"><g clip-path="url(#K)" class="a"><path d="M482.452 86.727l-20.74 44.583.188.09 21.403-44.269z"/><path d="M503.996 233.509c-1.863-26.675-4.441-53.31-8.046-79.82-3.634-26.501-8.22-52.909-14.762-78.902l-2.126.554c6.786 25.803 11.646 52.114 15.553 78.537 3.881 26.437 6.739 53.025 8.883 79.668z"/><path d="M491.741 137.213l-12.509 47.247.201.055 13.216-47.054zm3.115 20.134l24.314 22.179.142-.153-23.814-22.714zm-9.342-56.031l28.867 20.456.122-.169-28.437-21.05z"/></g><g clip-path="url(#L)" class="Y"><path d="M430.984 118.81c2.639-8.623 9.32-16.444 16.291-23.791 6.697-7.056 14.275-14.197 24.472-17.789a41.8 41.8 0 0 1 8.087-1.955l.198-.027c13.733 55.683 21.363 115.658 25.106 179.297-1.429.173-2.872.212-4.307.096-9.242-.743-15.316-7.421-17.144-14.392-1.822-6.972-.46-14.414-.525-21.66s-1.935-14.892-8.735-19.392c-5.537-3.664-13.937-4.972-17.467-9.943-3.609-5.079-.616-11.787 2.51-17.562s6.384-12.356 3.223-17.632c-4.056-6.76-16.064-7.479-23.66-11.96-8.509-5.019-10.696-14.667-8.049-23.29"/></g></g><path d="M218.111 435.718c-13.545-4.41-14.922-43.404-4.138-90.399h0c-10.058 8.356-18.657 11.553-24.146 7.971h0c-13.486-8.842-3.109-55.293 23.153-103.748h0l1.219-2.226h0c-20.166 15.311-37.084 21.418-44.068 14.084h0c-11.302-11.918 7.848-54.695 42.795-95.67h0c-24.833 10.179-44.182 11.646-49.36 1.978h0c-7.975-14.951 20.895-50.802 64.472-80.07h0l2.148-1.403h0c26.25-16.782 58.358-19.926 86.937-11.867h0c25.19 7.098 47.645 22.908 60.941 45.744h0a198.21 198.21 0 0 1 4.449 8.208h0l.936 1.855h0c1.594 3.169 3.056 6.325 4.388 9.46h0c21.37 50.399 27.095 97.507 12.812 105.205h0c-9.26 4.988-24.659-7.791-40.157-31.1h0c8.2 55.005 2.277 102.11-13.241 105.287h0c-9.563 1.953-20.556-13.229-29.534-38.032h0l-.116 2.59h0c-2.89 56.061-18.004 100.972-33.754 100.292h0c-6.416-.277-11.948-8.085-16.069-21.037h0c-14.095 42.773-33.522 73.288-47.056 73.285h0a8.42 8.42 0 0 1-2.611-.407" fill="url(#M)"/><g clip-path="url(#N)"><g clip-path="url(#O)" class="W"><path d="M387.837 139.635c-1.332-3.135-2.794-6.291-4.388-9.46l-.936-1.854a194.61 194.61 0 0 0-4.449-8.208c-13.295-22.837-35.751-38.647-60.94-45.745-30.557 102.075-64.185 227.166-99.013 361.35 13.546 4.399 34.638-27.271 49.667-72.877 4.121 12.951 9.654 20.759 16.069 21.036 15.75.681 30.865-44.23 33.754-100.292l.116-2.59c8.977 24.804 19.971 39.985 29.535 38.032 15.518-3.176 21.44-50.282 13.241-105.287 15.498 23.309 30.897 36.088 40.157 31.101 14.283-7.699 8.557-54.807-12.813-105.206"/></g><g clip-path="url(#P)" opacity=".2"><path d="M315.676 73.935c-15.897 53.946-30.636 108.215-44.967 162.577L228.151 399.71l44.017-162.805L318.57 74.801z"/></g></g><path d="M1227.571 459.39c-21.66-13.559-27.258-37.294-31.81-59.269h0c-4.559-21.973-10.585-45.698-32.687-58.84h0c-10.924-6.491-25.706-10.401-31.2-20.302h0c-7.294-13.143-6.024-23.864 5.46-36.7h0c11.494-12.833 22.653-29.817 12.597-41.669h0c-7.675-9.056-12.475-15.315-26.55-17.538h0c-11.855-1.873-19.299-6.445-25.118-14.733h0c-5.107-7.25-6.413-16.802-5.444-25.145h0c2.451-20.98 6.926-42.353 18.92-62.223h0c13.355-22.132 38.458-42.284 67.539-49.326h0l.434-.106h0c5.971-1.426 12.127-2.289 18.369-2.511h0c24.076-.826 45.6 7.837 65.227 17.04h0c20.431 9.585 40.646 20.387 53.125 36.138h0c12.497 15.744 15.792 37.54 2.21 54.865h0c-12.123 15.465-36.455 26.71-39.382 44.032h0c-2.274 13.516 9.831 24.517 21.008 33.969h0c11.174 9.446 22.835 20.934 19.471 34.404h0c-3.289 13.183-19.657 22.717-28.173 34.816h0c-10.453 14.861-8.122 32.252-2.375 47.335h0c5.75 15.088 14.618 29.424 16.5 45.373h0c1.868 15.948-5.314 34.738-23.887 43.785h0c-2.883 1.405-5.91 2.496-9.015 3.299h0c-1.223.32-2.469.595-3.719.823h0c-3.448.635-6.963.938-10.471.937h0c-11.325 0-22.554-3.153-31.029-8.454" fill="url(#Q)"/><g clip-path="url(#R)"><g clip-path="url(#S)" class="a"><path d="M1182.143 100.958l80.362 74.479.319-.338-79.244-75.669z"/><path d="M1259.139 421.179c-17.188-57.029-32.848-114.521-46.265-172.529-6.698-29.004-12.826-58.137-18.176-87.405-5.343-29.266-9.922-58.67-13.331-88.193l-4.861.577c3.739 29.625 8.645 59.068 14.311 88.347 5.674 29.279 12.12 58.394 19.134 87.365 14.048 57.939 30.328 115.301 48.125 172.165z"/><path d="M1203.62 212.987l65.638 86.905.372-.276-64.326-87.881zm9.68 42.148l-30.969 66.476.419.2 32.441-65.769zm-25.99-124.078l-41.914 66.772.391.251 43.289-65.889z"/></g><g clip-path="url(#T)" opacity=".2"><path d="M1316.433 124.206c-12.479-15.751-32.693-26.554-53.124-36.139-19.627-9.202-41.151-17.865-65.228-17.039-6.242.222-12.397 1.084-18.369 2.511l-.433.106c16.723 126.697 49.596 257.344 93.511 392.439a48.03 48.03 0 0 0 9.016-3.299c18.573-9.048 25.755-27.837 23.887-43.785-1.882-15.949-10.751-30.284-16.5-45.373-5.747-15.083-8.078-32.474 2.374-47.335 8.516-12.1 24.885-21.633 28.174-34.816 3.363-13.469-8.297-24.958-19.472-34.405s-23.282-20.452-21.008-33.969c2.927-17.321 27.26-28.566 39.383-44.031 13.581-17.325 10.286-39.121-2.211-54.865"/></g><path d="M1393.165 68.138c0-1.778-53.13-3.413-141.95-4.702l-506.05-2.829-511.2 2.9c-85.73 1.28-136.8 2.885-136.8 4.631 0 1.668 46.37 3.201 124.89 4.449l523.11 3.082 512.39-2.916c85.01-1.272 135.61-2.877 135.61-4.615" fill="#99aad4"/></g><path d="M342.351 551.395V73.904h70.212v208.732h115.601v60.027H412.563v148.705H567.88v60.027z" fill="url(#U)"/><path d="M655.818 551.395L549.436 73.904h71.631L654.4 223.29h103.544l33.333-149.386h71.631L756.526 551.395zm50.354-97.545l38.298-171.214h-76.595l38.297 171.214" fill="url(#V)"/><path d="M908.304 490.003c-14.893-29.332-15.602-55.252-15.602-57.981h0V193.277c0-2.729 1.418-30.014 16.311-57.981h0c14.895-27.967 44.681-50.477 80.142-58.663h0c21.039-3.033 42.313-3.067 63.83 0h0c26.38 5.856 48.038 17.996 64.206 35.417h0l26.81-38.146 58.024 40.782-52.733 75.026c.121 1.845.146 3.079.146 3.565h0v238.745c0 2.729-.71 28.649-15.603 57.981h0c-20.567 39.563-60.994 61.392-112.766 61.392h0c-51.772 0-92.197-21.829-112.765-61.392m110.527-354.471c-23.735.773-44.494 16.353-51.809 38.947h0c-3.113 9.618-4.108 17.478-4.108 18.798h0v238.745c0 10.232 7.802 59.346 58.155 59.346h0c50.355 0 57.447-48.431 57.447-59.346h0V193.277c0-1.108-.351-6.823-2.095-14.318h0c-5.827-25.033-27.993-43.019-53.692-43.457h0l-1.351-.012h0c-.848 0-1.697.014-2.547.042" fill="url(#W)"/><g clip-path="url(#X)"><g clip-path="url(#Y)" class="Y"><path d="M398.005 491.372h14.56v-148.71h-14.56zm0-208.74h14.56V73.903h-14.56zm115.6 60.03h14.56v-60.03h-14.56zm54.28 148.71h-14.56v60.02h14.56zm188.64 60.02h-6.775l98.605-477.49h14.55zm-56.187-97.54l-47.023-171.22h14.56l38.297 171.218zm-60.493-230.56l-33.341-149.39h14.561l33.33 149.39zm543.486-120.828l-3.198-3.169 4.809 3.381-1.611-.212m-216.306 72.018c-3.12 9.609-4.11 17.479-4.11 18.79v238.75c0 9.72 7.03 54.51 50.87 58.99-2.321.24-4.74.36-7.271.36-50.359 0-58.159-49.12-58.159-59.35v-238.75c0-1.311 1-9.181 4.109-18.79 7.311-22.601 28.071-38.18 51.811-38.95 1.3-.04 2.6-.05 3.899-.03 1.96.03 3.891.169 5.8.4-21.679 2.58-40.139 17.54-46.949 38.58m167.86 31.238l14.55 226.303c0 2.729-.71 28.649-15.6 57.979-20.57 39.56-60.99 61.39-112.769 61.39-2.451 0-4.881-.05-7.281-.14 48.281-1.97 85.9-23.56 105.491-61.25 14.899-29.33 15.609-55.25 15.609-57.979z"/></g><path d="M932.567 649.815l43.93-20.069c2.974-1.24 6.401.019 7.865 2.889l7.635 14.964-1.499 12.261-8.731 18.657-9.924-30.49-35.713 8.025c-1.119.252-2.143.82-2.953 1.633l-2.964 2.795c-.367.293-.747.592-1.199.718s-.996.041-1.284-.329c-.255-.326-.251-.798-.098-1.183s.434-.703.708-1.013l1.21-1.364c.158-.177.327-.408.242-.629-.089-.235-.396-.284-.647-.283a6.61 6.61 0 0 0-4.914 2.296c-.424.499-.777 1.067-1.283 1.481s-1.235.651-1.822.361c-.451-.222-.722-.715-.791-1.213s.036-1.003.176-1.485a10.54 10.54 0 0 1 5.069-6.266c2.088-1.122 6.987-1.756 6.987-1.756" fill="#e6b3a3"/><path d="M984.534 551.103l-25.825 1.075c-3.645.151-6.993-1.995-8.377-5.369l-25.488-97.752c-4.359-1.974-8.548-.913-12.441.839l14.828 106.539c2.989 13.314 16.407 16.04 16.407 16.04l33.499 7.826z" fill="#e3b7aa"/><path d="M926.646 442.568c.179-1.237.345-2.564-.214-3.684-.848-1.7-2.974-2.24-4.85-2.536a93.77 93.77 0 0 0-21.963-.862c-.823.064-1.657.143-2.422.448s-1.465.875-1.738 1.653c-.303.861-.03 1.848.522 2.575s1.35 1.228 2.17 1.629c1.749.854 3.659 1.314 5.533 1.842s3.759 1.148 5.351 2.268 2.875 2.819 3.073 4.756c6.805-2.72 13.576-.161 13.576-.161s.059-1.686.143-2.268l.819-5.66" fill="#5c255e"/><path d="M988.507 542.642l-22.699-2.496c-3.648 0-6.905-2.283-8.147-5.712l-22.405-98.965c-4.273-2.154-7.464-1.148-11.427.441l10.515 108.985c2.434 13.426 15.726 16.707 15.726 16.707l31.898 7.906z" class="Z"/><path d="M964.582 579.128c9.817 1.715 20.169 5.255 29.057 5.985 18.609 1.528 35.682 1.322 53.32 1.161 5.362-23.811-6.874-41.275-22.772-43.299l-45.978-2.074c-2.452-.11-4.738 1.173-5.982 3.289-6.486 11.031-8.215 25.539-7.645 34.938" fill="#2e3192"/><path d="M1011.883 709.789l-9.532 26.378-12.413-9.975v-27.153z" class="b"/><g clip-path="url(#Z)" class="Y"><path d="M1002.351 736.168l-12.413-9.975v-9.784c.421-.15.85-.281 1.289-.38 4.4-.995 9.078.805 12.49 3.755 1.221 1.055 2.3 2.245 3.283 3.518z"/></g><path d="M1031.421 686.117c-4.734 14.324-10.755 22.943-20.498 27.066s-17.058.481-22.294-4.443c-6.458-6.075-13.296-12.856-14.525-21.637-1.115-7.956 2.654-15.672 5.939-23.003 15.159-44.418 13.596-78.986 13.596-78.986 17.883-3.724 32.457-2.185 53.32 1.161 0 0-2.18 51.441-7.747 71.93-3.147 11.581-4.025 16.517-7.791 27.912" class="g"/><g clip-path="url(#a)" class="W"><path d="M1046.957 586.273c-17.513-2.808-31.061-4.627-45.54-2.507 9.937 12.282 20.076 29.194 22.77 49.825 3.796 29.092-5.718 61.463-15.129 80.286.612-.198 1.234-.433 1.865-.697 9.741-4.116 15.761-12.737 20.5-27.066 3.767-11.389 4.644-16.326 7.791-27.913 5.567-20.49 7.743-71.928 7.743-71.928"/></g><path d="M924.847 676.717c-.353-.11-.663-.299-.909-.57l-6.949-7.689c-.498-.55-.66-1.342-.455-2.243s.748-1.792 1.531-2.513l25.808-23.805c1.234-1.138 2.763-1.578 3.882-1.229.354.11.666.296.907.569l6.958 7.685c.494.548.652 1.345.451 2.241s-.748 1.792-1.536 2.519l-25.808 23.805c-1.229 1.135-2.764 1.578-3.88 1.23" class="c"/></g><path d="M925.789 676.328a1.71 1.71 0 0 1-.733-.46h0l-6.96-7.694c-.397-.437-.523-1.084-.364-1.806h0c.166-.719.605-1.444 1.242-2.023h0l10.451-9.644 3.859-3.555 3.954-3.655 7.542-6.96a1.01 1.01 0 0 1 .158-.125h0c.951-.817 2.118-1.128 2.969-.861h0c.292.087.544.241.741.463h0l6.948 7.681c.404.441.531 1.087.369 1.816h0c-.167.719-.602 1.437-1.241 2.023h0l-11.647 10.743-7.701 7.108-3.952 3.649-2.505 2.307c-.411.375-.863.655-1.314.835h0c-.4.165-.804.25-1.179.25h0c-.225 0-.44-.03-.637-.092" fill="url(#b)"/><g clip-path="url(#c)"><path d="M957.751 645.373l44.31-23.012c5.323-2.494 11.51 1.038 12.068 6.889l3.914 41.022h-21.361l-1.092-25.874-34.885 9.346c-2.962 3.768-7.442 6.254-12.194 6.876-1.617.211-3.354.185-4.757-.644-.473-.28-.941-.824-.705-1.32.186-.391.693-.484 1.127-.508 1.175-.065 2.356.01 3.528-.107s2.363-.445 3.26-1.209 1.429-2.03 1.078-3.153-1.74-1.883-2.794-1.358c-.581.289-.952.868-1.44 1.295s-1.277.683-1.76.25c-.447-.401-.349-1.122-.155-1.692.948-2.784 3.376-5.016 6.23-5.727 1.779-.444 3.974-.283 5.628-1.074" class="b"/><g clip-path="url(#d)" class="W"><path d="M1013.582 670.272l-3.287-34.46c-.559-5.852-6.746-9.384-12.068-6.89l-17.041 8.849c-6.016 2.251-12.122 4.382-18.161 6.425-4.185 1.415-8.393 2.564-12.649 3.727-.722.198-1.424.428-2.128.656 1.091-1.016 2.427-1.771 3.875-2.132 1.779-.443 3.974-.283 5.628-1.074l44.31-23.012c5.323-2.494 11.51 1.038 12.068 6.89l3.914 41.021z"/></g><path d="M994.058 666.899c9.538-1.587 18.496-2.099 26.047 0v27.077c0 7.192-5.831 13.023-13.024 13.023s-13.023-5.831-13.023-13.023z" fill="#ffa263"/><path d="M1012.963 782.502c9.45 5.344 20.597 8.464 31.246 6.349s20.445-10.3 22.322-20.994c1.227-6.993-.884-14.073-2.214-21.048-4.895-25.686 1.275-53.29 16.638-74.449-14.651 2.341-27.621 10.003-36.723 21.721s-13.557 26.948-12.202 41.723c.433 4.718 1.431 9.381 1.639 14.114s-.451 9.682-3.046 13.646-7.459 6.685-12.096 5.708c-1.66 3.586-3.903 9.644-5.564 13.23" fill="#722e75"/><g clip-path="url(#e)" class="W"><path d="M1064.317 746.808c1.329 6.975 3.44 14.056 2.214 21.049-1.877 10.693-11.674 18.878-22.322 20.993s-21.796-1.005-31.246-6.349c.773-1.669 1.671-3.873 2.58-6.115 2.355.646 4.741 1.173 7.166 1.488 8.28 1.075 17.255-.38 23.638-5.764 8.074-6.81 10.397-18.327 10.181-28.888s-2.444-21.115-1.315-31.616c1.667-15.532 11.293-29.873 24.706-37.778-14.6 20.958-20.385 47.882-15.602 72.98"/></g><path d="M1003.342 782.288c3.167 2.586 6.73 2.341 10.071 1.152s6.034-3.774 8.033-6.703c1.5-2.198 2.681-4.677 2.973-7.321s-.392-5.471-2.213-7.411-4.855-2.794-7.282-1.705c-1.519.68-2.648 1.99-3.725 3.26-2.791 3.291-5.5 6.355-8.669 9.197-1.223 1.096-1.543 2.513-1.417 4.15.086 1.139.407 3.821 2.229 5.381" class="g"/><path d="M972.352 739.039c.242-3.787 1.015-7.611 2.893-10.909s4.968-6.027 8.67-6.864c4.4-.995 9.078.804 12.49 3.754s5.755 6.931 7.82 10.941c2.736 5.311 5.154 11.299 3.817 17.122-.988 4.305-4.01 7.992-7.783 10.289-3.63 2.209-7.976 3.217-12.208 2.831-2.397-.219-4.752-.885-6.917-1.935-1.61-.782-3.629-1.802-4.564-3.414-.92-1.583-1.469-3.625-2.048-5.347a43.41 43.41 0 0 1-1.813-7.609c-.422-2.93-.546-5.904-.357-8.859" class="b"/><g fill="#722e75"><path d="M970.025 765.781c.238 8.322 6.834 15.676 14.789 18.131s16.821.545 23.947-3.761c8.475-5.12 14.953-13.853 16.289-23.664s-2.97-20.448-11.362-25.705c-1.996-1.25-4.237-2.208-6.59-2.326s-4.825.701-6.34 2.505c-2.065 2.46-1.943 6.081-1.188 9.204s2.036 6.193 1.921 9.403c-.154 4.3-3.082 8.372-7.11 9.887-2.776 1.044-6.596 1.01-9.081-.787-1.671-1.21-2.313-3.174-4.39-3.878-6.83-2.315-11.048 5.274-10.885 10.991M937.05 428.664c.179-1.237.345-2.565-.213-3.685-.848-1.699-2.975-2.239-4.851-2.536-7.253-1.146-14.642-1.436-21.963-.862-.822.064-1.657.144-2.421.449s-1.466.874-1.739 1.653c-.302.86-.03 1.848.523 2.575s1.35 1.227 2.17 1.628c1.749.854 3.658 1.314 5.532 1.842s4.262 1.009 5.855 2.129 2.874 2.82 3.073 4.757c6.804-2.721 13.073-.023 13.073-.023s.058-1.686.142-2.267l.819-5.66"/></g><g clip-path="url(#f)" class="Y"><path d="M1271.367 435.351c.522-14.105-6.99-27.107-14.257-39.208l-19.234-32.028c-3.038-5.059-6.233-10.286-11.142-13.563-8.548-5.706-19.437.149-29.549 1.988 5.186-17.491 6.679-57.847 6.726-72.97.014-4.433-3.83-7.001-7.915-8.724l1.189-1.436s12.788-62.799-13.245-155.706c-1.318-4.708-2.894-9.428-2.943-14.318s1.587-10.054 5.432-13.074c4.572-3.59 12.151-4.405 13.643-10.023-10.302.468-22.159 1.769-27.894 10.338-3.016 4.508-3.635 10.185-3.677 15.608-.22 28.39 12.815 55.221 16.094 83.423 2.185 18.802-.011 37.808-2.206 56.61l-9.792 83.881c-2.063 17.675-.877 34.639-.727 52.433.035 4.211.267 8.958 5.016 10.956 2.261.952 4.836.799 7.09-.171 6.187-2.666 9.538-8.403 13.472-13.451 3.152-4.044 7.124-7.93 12.177-8.803 5.682-.983 11.413 2.184 15.2 6.532s6.059 9.77 8.565 14.963c8.513 17.629 23.503 33.561 37.977 46.743"/></g><path d="M1159.475 468.983h-8.225-8.224c.461-8.411-1.422-15.75-5.31-22.171l13.534-13.943 13.536 13.943c-3.449 6.965-5.1 14.386-5.311 22.171" class="Z"/><g clip-path="url(#g)" class="Y"><path d="M1159.475 468.984h-8.225-8.224c.165-3.016.024-5.89-.397-8.636.949-2.435 2.367-4.66 4.357-6.339 3.76-3.175 8.957-4.01 13.878-4.118.839-.019 1.685-.015 2.53.021-2.499 6.054-3.738 12.429-3.919 19.072"/></g><path d="M1190.384 283.033l4.435-67.952c1.252-6.105 1.507-12.326.758-18.489l-16.792-104.185c-4.975-2.137-11.139-1.819-18.033 0l8.919 106.493-16.451 79.396z" fill="#473047"/><path d="M1160.455 281.424l-11.081-74.285c-.809-7.543-2.482-14.968-4.988-22.128l-32.451-92.721c-5.97-1.304-12.064-1.05-18.334 1.447l29.185 108.403-1.408 80.893z" class="d"/><path d="M1160.425 94.893l-2.829-11.068a6.36 6.36 0 0 1 5.35-8.062l32.526-3.869c3.795-.457 6.814 3.125 5.724 6.788a5.31 5.31 0 0 1-3.995 3.68l-9.255 1.952c-7.968 1.68-8.882 8.336-8.882 8.336-6.351-1.7-12.584-1.324-18.639 2.243" class="f"/><g clip-path="url(#h)" class="W"><path d="M1169.346 80.17a6.36 6.36 0 0 0-5.351 8.061l.971 4.58c-1.524.509-3.038 1.197-4.541 2.082l-2.829-11.069a6.36 6.36 0 0 1 5.351-8.061l32.525-3.869c2.976-.359 5.465 1.769 5.879 4.468z"/></g><path d="M1093.79 97.441l-3.841-10.759a6.36 6.36 0 0 1 4.583-8.521l32.028-6.861c3.736-.805 7.075 2.481 6.327 6.229a5.31 5.31 0 0 1-3.637 4.034l-9.035 2.799c-7.779 2.41-8.073 9.122-8.073 9.122-6.481-1.105-12.654-.154-18.352 3.957" class="f"/><g clip-path="url(#i)" class="W"><path d="M1101.312 81.957a6.36 6.36 0 0 0-4.582 8.521l1.39 4.471a23.82 23.82 0 0 0-4.329 2.492l-3.841-10.758a6.36 6.36 0 0 1 4.583-8.522l32.027-6.86c2.93-.632 5.606 1.256 6.268 3.906z"/></g><path d="M1265.467 418.679c.209 1.876-2.886 2.785-4.151 1.197l-.031-.039c-1.237-1.573-1.695-3.445-2.463-5.2s-2.013-3.537-4.137-4.291c-1.547-.549-3.318-.465-5-.318-1.407.123-2.962.352-3.812 1.258-.785.839-.709 2.008-.386 3.025s.855 2.009.868 3.057c.009.722-.38 1.564-1.258 1.733-.964.186-1.805-.536-2.32-1.214-2.43-3.193-3.091-7.064-2.988-10.803.048-1.736.261-3.508 1.153-5.091 1.094-1.943 3.218-3.498 5.735-4.199 2.251-.627 5.727-.731 7.757.464 1.903 1.121 3.426 3.37 4.64 4.96 2.842 3.717 4.824 7.855 5.821 12.138a28.39 28.39 0 0 1 .572 3.323" class="Z"/><g clip-path="url(#j)" class="Y"><path d="M1261.78 420.295c.575-.351.958-.916.88-1.616-.124-1.113-.316-2.224-.571-3.323-.998-4.284-2.98-8.421-5.822-12.139-1.215-1.589-2.736-3.838-4.639-4.959-.782-.46-1.778-.724-2.835-.844 1.966-.197 4.176-.017 5.64.844 1.904 1.121 3.426 3.37 4.641 4.959 2.842 3.718 4.823 7.855 5.821 12.139.256 1.099.448 2.21.572 3.323.186 1.676-2.26 2.574-3.687 1.616"/></g><path d="M1260.03 440.493c-1.168-.107-2.4-.933-3.068-2.169l-14.045-25.917c-.428-.791-.565-1.624-.386-2.353s.649-1.259 1.326-1.502l9.528-3.388c.333-.122.697-.157 1.067-.123 1.171.107 2.398.929 3.069 2.168l14.045 25.918c.428.785.566 1.623.386 2.347-.179.73-.65 1.259-1.331 1.501l-9.524 3.395c-.336.119-.698.157-1.067.123" class="c"/></g><path d="M1259.322 439.9c-.551-.049-1.125-.304-1.606-.707h0a3.62 3.62 0 0 1-.869-1.042h0l-1.365-2.513-2.149-3.972-4.189-7.737-6.338-11.697c-.348-.639-.458-1.309-.317-1.892h0a1.66 1.66 0 0 1 1.079-1.216h0l9.517-3.388c.271-.1.566-.13.869-.1h0c.892.082 1.838.689 2.381 1.601h0c.039.05.07.094.094.143h0l4.103 7.576 2.148 3.978 2.103 3.872 5.686 10.499c.349.633.458 1.309.318 1.891h0c-.147.584-.527 1.018-1.071 1.21h0l-9.533 3.395c-.213.073-.438.107-.668.107h0a2.51 2.51 0 0 1-.193-.008" fill="url(#k)"/><g clip-path="url(#l)"><path d="M1181.643 438.813c14.648-9.826 19.729-33.397 30.226-63.544 11.142 4.457 27.475 30.32 27.475 30.32 3.814-1.599 10.702-4.971 13.1-8.8 0 0-18.215-34.356-34.947-42.799-4.742-2.394-10.464-1.754-14.73 1.412-9.208 6.831-17.864 16.24-21.124 30.039-6.4 27.086 0 53.372 0 53.372" fill="#187bcb"/><path d="M1137.716 446.813c-6.854-2.961-13.039-5.965-16.47-9.143 4.188-43.891.915-100.984-5.661-162.286 25.431-4.418 52.507-4.726 81.601 0-3.411 61.644-6.536 119.746-15.543 163.429-4.766 2.944-10.661 5.727-16.915 8.457-10.216-4.729-19.217-4.872-27.012-.457" fill="#1a88d6"/><g clip-path="url(#m)" class="W"><path d="M1125.877 300.14c-2.621 0-5.211.146-7.766.426l-2.526-25.183c25.431-4.418 52.507-4.725 81.601 0l-4.091 67.961c-13.152-25.768-38.318-43.204-67.218-43.204"/></g><path d="M1134.842 474.826c.576-4.299 2.334-8.598 5.648-11.396 3.762-3.174 8.958-4.01 13.879-4.118 3.226-.071 6.561.143 9.455 1.571 4.275 2.107 6.969 6.631 7.944 11.297s.455 9.504-.26 14.216c-.596 3.923-1.354 7.91-3.318 11.357-3.991 7.003-13.119 10.601-20.815 8.204-5.445-1.696-9.769-6.266-11.591-11.618-.919-2.702-.739-5.037-.696-7.789.063-3.952-.78-7.734-.246-11.724" class="Z"/><path d="M1173.831 506.87c2.484 4.975 3.394 10.573 4.025 16.098.174 1.515.328 3.068-.03 4.55s-1.322 2.906-2.764 3.405c-2.44.843-4.944-1.225-6.237-3.461s-2.078-4.882-4.072-6.522c-2.684-2.209-6.609-1.849-9.996-1.071-6.485 1.489-13.222 4.082-19.575 2.107-4.329-1.346-7.817-4.714-10.107-8.626s-3.502-8.354-4.441-12.787c-.93-4.389-1.618-8.872-1.348-13.349s1.56-8.984 4.264-12.563 6.936-6.129 11.422-6.217 9.061 2.572 10.679 6.756c1.306 3.379.646 7.146.414 10.761s.193 7.696 2.954 10.04c1.708 1.451 4.056 1.964 6.294 1.865 2.203-.096 4.239-1.216 6.348-1.38 1.691-.13 3.649 1.113 5.026 2.033 3.082 2.058 5.497 5.062 7.144 8.361" fill="#754054"/><path d="M1119.097 323.191c1.493-4.266 2.371-8.873 2.035-13.493s-1.957-9.259-4.93-12.653-7.362-5.402-11.519-4.765c-1.835.86-2.272 3.737-1.334 5.736s2.736 3.321 4.445 4.572c.609.446 1.239.919 1.607 1.612s.386 1.67-.157 2.168c-.677.622-1.762.173-2.438-.502s-1.208-1.571-2.033-1.994c-1.464-.753-3.363.722-3.174 2.465.118 1.085.865 1.995 1.696 2.624s1.774 1.059 2.605 1.689c2.233 1.692 3.452 4.879 2.961 7.736 3.214 1.788 7.021 3.017 10.236 4.805" class="Z"/><path d="M1121.203 437.738c-7.124-4.92-18.055-30.705-24.473-47.131a43.66 43.66 0 0 1-1.411-27.544l13.072-47.199c5.798-.218 9.89-.28 12.275 3.839l-7.066 52.289 13.936 33.787z" fill="#1a88d6"/><g clip-path="url(#n)" class="W"><path d="M347.425 512.828c5.129-5.675 2.845-31.207 5.619-38.336 8.763-22.518 13.254-24.596 16.589-48.529s9.119-42.873-3.707-63.353c-3.196-5.103-14.823-11.823-14.823-11.823l2.874-37.565c5.897-50.387-1.757-156.22-1.757-156.22.906-22.603-.257-44.348.648-66.95.212-5.299-2.295-16.148-2.295-16.148h-20.492s8.441 31.662 9.39 47.874c1.481 25.321 2.964 50.695 1.831 76.032-1.058 23.662-4.39 47.156-7.718 70.606l-7.285 51.335c-3.927 27.666 9.468 56.975 4.942 84.55-2.053 12.511-6.117 24.726-6.79 37.387-.564 10.609 1.269 21.34-.452 31.824-.963 5.858-3.031 11.623-2.703 17.551.619 11.216 14.899 21.98 26.129 21.765"/></g><path d="M268.777 298.297c.183-2.043 1.322-4.029 3.114-5.028s4.209-.873 5.759.471c.766.666 1.288 1.565 1.767 2.46.455.852.899 1.798.717 2.746-.141.739-.639 1.35-.959 2.03-.496 1.054-.553 2.261-.493 3.425s.229 2.329.152 3.492c-.028.403-.097.833-.371 1.13-.251.271-.639.383-1.009.383s-.733-.096-1.093-.185a24.6 24.6 0 0 0-3.627-.616c-.731-.069-1.579.001-1.975-.74-.393-.734-.411-1.741-.618-2.538l-.947-3.32c-.311-1.209-.529-2.458-.417-3.71" class="Z"/><path d="M348.033 227.462l-5.668-141.206c-2.961-1.381-5.887-1.963-8.757-1.726l-.554.054c-.091 0-.173.019-.264.027l-.653.11a3.81 3.81 0 0 0-.455.081h-.009c-1.453.3-2.889.817-4.315 1.554L309.536 264.56l-17.831-65.176-12.908-113.128c-5.913-2.58-10.801-2.19-15.034.1l1.454 101.356c.154 11.046.926 22.073 2.307 33.027l10.501 83.353c16.623-7.349 36.207-7.112 58.226-2.462 2.017.427 4.052.891 6.105 1.39l2.016-11.736a282.9 282.9 0 0 0 3.661-63.822" class="X"/><g clip-path="url(#o)" opacity=".1"><path d="M291.643 219.37l-6.272-19.983-12.906-113.133c-1.592-.693-3.108-1.164-4.558-1.449 3.223-.693 6.815-.327 10.895 1.449l12.905 113.133 17.826 65.176zm56.39 8.092l-5.668-141.206c-2.961-1.381-5.887-1.963-8.757-1.726l-.554.054c-.091 0-.173.019-.264.027l-.653.11a3.81 3.81 0 0 0-.455.081c1.435.291 2.88.772 4.342 1.454l5.669 141.206c1.198 21.347-.028 42.747-3.661 63.822l-1.781 10.346c2.017.427 4.052.891 6.105 1.39l2.016-11.736a282.9 282.9 0 0 0 3.661-63.822"/></g><path d="M263.294 417.003c3.215 7.823 9.927 14.055 11.956 22.267 1.962 7.939-.804 16.173-3.02 24.046s-3.796 16.747.195 23.885c4.04 7.226 12.765 10.732 17.203 17.72 3.388 5.335 3.983 12.271 8.165 17.011 5.047 5.719 13.664 6.444 21.261 5.759 6.135-.552 12.308-1.788 17.75-4.672s10.116-7.577 12.009-13.438c3.279-10.159-2.193-21.162-.98-31.767 1.328-11.609 10.396-21.037 12.663-32.499 1.401-7.083.096-14.408.526-21.617.598-10.048 4.536-19.587 6.165-29.519s.339-21.414-7.372-27.884c-8.017-6.728-19.911-5.668-30.016-2.943s-20.43 6.781-30.711 4.824c-5.356-1.021-10.883-3.643-16.003-1.772-5.41 1.978-5.519 6.969-6.825 11.661-1.212 4.35-4.511 6.198-7.404 9.441-6.971 7.815-9.593 19.687-5.562 29.497" class="f"/><path d="M281.44 356.312l4.298 58.774 10.405 28.853s-20.08-5.215-26.282-42.158l-3.799-24.198c-1.735-12.153-1.823-24.48-.295-36.66l4.331-34.52c3.366-1.287 7.422-.856 11.648 0z" fill="#543854"/><path d="M276.578 296.083c20.458-7.496 43.262-5.599 67.684 2.782l-4.744 141.505s-4.578 2.769-11.01 3.144l-27.818 1.043-.307.007c-14.81.331-22.138-24.298-19.865-38.936 4.676-30.111-.775-78.512-3.94-109.545" class="d"/><path d="M298.783 319.712l-26.241-6.641c-1.789-.452-3.607.631-4.06 2.421l-11.272 44.549c-.453 1.789.631 3.607 2.42 4.06l26.241 6.639a3.34 3.34 0 0 0 4.059-2.42l11.273-44.548c.453-1.789-.631-3.608-2.42-4.06" fill="#3d3e5a"/><g clip-path="url(#p)" opacity=".1"><path d="M287.751 370.66c.458-.426.804-.982.969-1.634l11.263-44.512a3.36 3.36 0 0 0-2.434-4.083l-26.204-6.629a3.34 3.34 0 0 0-1.897.075c.807-.751 1.965-1.091 3.114-.801l26.203 6.631c1.799.455 2.889 2.283 2.434 4.083l-11.263 44.512c-.29 1.147-1.141 2.004-2.185 2.358"/></g><g class="g"><path d="M278.525 79.898c-.617-2.54-2.242-4.982-4.699-5.883-1.101-.401-2.29-.47-3.465-.528a243.1 243.1 0 0 0-19.987-.152c-1.312.049-2.648.108-3.871.568-1.229.465-2.345 1.404-2.683 2.672-.46 1.727.671 3.558 2.188 4.508s3.343 1.233 5.1 1.56c4.415.822 8.516 2.203 12.695 3.71l-.014-.098c4.677-2.524 9.72-2.23 15.015 0 .161-2.133.225-4.287-.279-6.357m63.559 0c-.617-2.54-2.242-4.982-4.698-5.883-1.101-.401-2.291-.47-3.466-.528-6.655-.323-13.326-.377-19.987-.152-1.312.049-2.648.108-3.871.568-1.228.465-2.344 1.404-2.682 2.672-.46 1.727.67 3.558 2.187 4.508s3.343 1.233 5.1 1.56c4.415.822 8.516 2.203 12.695 3.71l-.014-.098c4.677-2.524 9.72-2.23 15.015 0 .161-2.133.225-4.287-.279-6.357"/></g><path d="M300.69 444.557c3.451 8.203 5.607 16.611 6 25.298h15.817c.445-7.591 2.994-16.791 6-26.341-10.202-4.174-19.623-4.547-27.817 1.043" class="Z"/><g clip-path="url(#q)" class="Y"><path d="M322.507 469.855h-15.816c-.342-7.546-2.017-14.881-4.712-22.055a14.65 14.65 0 0 1 4.698-2.107c3.553-.877 7.385-.426 10.726 1.065 3.252 1.451 5.987 3.844 8.17 6.678-1.603 5.917-2.778 11.508-3.066 16.419"/></g><path d="M293.488 471.814c-.304-4.346-.043-8.943 2.222-12.665 1.902-3.126 5.137-5.365 8.69-6.242s7.383-.427 10.725 1.065c4.604 2.055 8.196 5.975 10.609 10.402s3.74 9.361 4.748 14.301c.712 3.493 1.263 7.191.109 10.564-1.733 5.058-7.032 8.211-12.326 8.966-4.689.669-11.846.422-16.132-2.008-4.043-2.294-5.583-9.111-6.716-13.191-1.014-3.654-1.664-7.41-1.929-11.192" class="Z"/><path d="M314.493 492.731a29.7 29.7 0 0 1 13.474-11.837c2.288-.999 5.035-1.676 7.199-.431 1.873 1.079 2.766 3.326 3.007 5.473.701 6.252-3.179 12.406-8.521 15.727s-11.883 4.193-18.168 3.937c-4.222-.173-8.55-.862-12.162-3.054-3.386-2.054-9.984-10.238-3.451-12.356 3.072-.996 6.571-1.099 9.746-.651.729.102 9.273 2.53 8.876 3.192" class="f"/><path d="M295.573 346.13l8.941 1.422c.587.089 1.205.175 1.759-.039.74-.285 1.182-1.028 1.569-1.72l2.318-4.152c.701-1.354.419-2.004-.754-2.921-2.098-1.637-4.452-3.119-7.057-3.771-2.493-.624-5.114-.448-7.665-.125-2.326.295-4.659.715-6.827 1.609s-4.18 2.291-5.489 4.236c-.564.837-.949 2.066-.229 2.773.401.393 1.031.467 1.579.343s1.04-.415 1.536-.678c1.942-1.03 4.09-1.668 6.279-1.866.84-.075 1.737-.063 2.546.154 1.294.346 2.148 1.603 1.938 2.926-.09.572-.264 1.186-.444 1.809" class="Z"/><path d="M343.714 435.867l19.36-53.384a17.99 17.99 0 0 0-7.985-21.749l-47.507-25.928c-3.794 3.136-6.025 7.65-7.065 13.211l40.191 30.22-16.429 50.189c-1.586 5.506 1.561 11.262 7.053 12.899 4.907 1.462 10.151-.85 12.382-5.458" fill="#543854"/><g clip-path="url(#r)" opacity=".1"><path d="M363.074 382.483l-19.36 53.383c-1.782 3.681-5.486 5.889-9.404 5.888-3.252-4.241 2.922-18.314 4.435-22.695 2.49-7.208 6.304-13.884 9.157-20.957s4.745-14.861 3.133-22.315c-2.25-10.411-10.89-18.27-20.067-23.676-8.589-5.061-18.045-8.651-26.302-14.203.85-1.142 1.809-2.187 2.916-3.102l47.506 25.928c7.599 4.342 10.97 13.521 7.986 21.749"/></g><path d="M372.165 738.634l-8.185-25.645 22.25-7.12c-.447 7.551-1.695 15.779.417 21.482z" class="b"/><g clip-path="url(#s)" class="Y"><path d="M372.165 738.634l-1.507-4.723a30.4 30.4 0 0 1 .887-3.223c1.17-3.471 2.983-6.732 5.39-9.499 2.271-2.61 5.344-4.847 8.619-5.698-.224 4.387-.133 8.549 1.093 11.86z"/></g><path d="M398.396 594.553c-25.315-5.146-46.107-6.656-56.045.574l3.563 51.388.978 14.119s3.152 39.94 17.063 55.109c4.137 4.517 6.136 5.092 12.264 5.092 5.864 0 16.768-7.194 19.39-12.731 1.479-3.099 1.601-6.65 1.632-10.091.073-8.391-.452-15.622-1.179-22.314-1.914-17.706-5.22-31.696-2.549-53.735 1.094-9.045 2.231-18.696 4.883-27.411" fill="#9a4747"/><g clip-path="url(#t)" class="Y"><path d="M398.396 594.553c-25.315-5.146-46.107-6.656-56.045.574l3.563 51.388c8.55-.372 29.994 33.837 29.282 44.512-.154 2.294 3.398 9.779 6.252 9.437 2.744-.336 5.867-7.658 7.09-9.834 2.726-4.865 5.232-9.846 7.524-14.931-1.914-17.706-5.22-31.696-2.549-53.735 1.094-9.045 2.231-18.696 4.883-27.411"/></g><path d="M560.859 552.015l-.177-.605c-.012-.049-.031-.092-.043-.141-.165-.556-.367-1.106-.593-1.662-.012-.037-.031-.073-.043-.11H382.529v26.69l177.474-13.458a16.36 16.36 0 0 0 .917-2.689c.189-.715.318-1.43.397-2.146l.006-.067c.202-1.931.043-3.862-.464-5.812" fill="#de7f3c"/><path d="M573.241 583.784v-28.292c0-2.707-1.772-5.097-4.357-5.885h-8.881l.635 1.662.043.141.178.605c.384 1.394.556 2.769.556 4.119 0 .569-.031 1.131-.092 1.693l-.006.067c-.079.728-.202 1.443-.367 2.158-.238 1.008-.562 2.017-.947 3.013 2.976 4.981 5.183 10.384 6.552 16.019l1.302 5.342c.134.556.433 1.039.843 1.4a2.73 2.73 0 0 0 1.498.672 2.74 2.74 0 0 0 3.043-2.714" class="d"/><g clip-path="url(#u)" class="W"><path d="M573.241 574.855v-19.362c0-2.708-1.772-5.097-4.357-5.886h-8.838l-.043-.11H382.529v15.866a702.12 702.12 0 0 1 34.44-4.681 713.28 713.28 0 0 1 86.029-4.309c16.349.171 32.692.904 48.993 2.206 3.013.238 6.087.514 8.929 1.461.012.006.024.006.03.012a17.2 17.2 0 0 1 2.201.905c5.146 2.566 8.477 7.89 9.974 13.446a11.98 11.98 0 0 1 .116.452"/></g><path d="M512.454 565.321c-4.538-1.94-9.375-3.443-13.817-1.65l-21.991 49.212-55.102-52.374c-7.967-6.61-17.873-10.58-28.221-10.879-.453-.014-.907-.02-1.361-.02h-33.997c-8.624 0-15.615 6.991-15.615 15.614v29.903c8.964-6.639 28.376-6.346 56.045-.574l71.457 47.505c8.98 5.767 20.991 1.892 24.904-8.036z" fill="#ee8941"/><path d="M532.995 550.756c-.434-.923-1.369-1.577-2.475-1.577h-25.584l-.501.018c-3.025.245-5.324 2.867-5.446 5.904l-.354 8.569c1.418-.623 2.841-.868 4.254-.868 1.619 0 3.227.324 4.803.795 1.632.489 3.227 1.13 4.761 1.723a19.03 19.03 0 0 1 14.033-10.048l4.676-.708c.556-.141 1.044-.441 1.405-.85s.605-.929.666-1.498c.061-.519-.03-1.026-.238-1.46" class="d"/><g fill="#3d3e5a"><path d="M489.926 646.415h0a2.32 2.32 0 0 0-2.225-1.665h-65.633a2.32 2.32 0 0 0-2.319 2.319 2.32 2.32 0 0 0 2.319 2.319h65.633a2.32 2.32 0 0 0 2.225-2.973"/><path d="M506.828 712.284c1.222-.381 1.903-1.681 1.521-2.903l-18.599-59.298-1.442-4.614-4.419 1.381 1.033 3.315 19.003 60.598a2.32 2.32 0 0 0 2.903 1.521"/></g><path d="M375.792 730.127c3.507-4.032 8.928-7.195 14.056-5.688 3.387.994 5.962 3.877 7.431 7.088s1.992 6.761 2.498 10.255c.555 3.827 1.111 7.691.823 11.548s-1.495 7.759-4.073 10.641c-3.163 3.535-8.214 5.156-12.909 4.479-5.252-.758-11.614-4.781-13.36-9.982-2.031-6.049-1.887-12.816.144-18.842 1.17-3.472 2.983-6.732 5.39-9.499" class="b"/><path d="M402.203 763.156c3.386 2.174 5.773 5.663 7.247 9.407s2.105 7.761 2.586 11.757c.178 1.482.181 3.307-1.097 4.079-1.425.861-3.164-.287-4.553-1.203-4.533-2.988-10.144-3.796-15.566-4.059s-10.924-.065-16.2-1.344a29.85 29.85 0 0 1-22.381-32.141c.597-5.11 2.667-10.207 6.533-13.601s9.692-4.76 14.356-2.587 7.383 8.235 5.17 12.88c-1.181 2.477-3.49 4.291-4.6 6.802-1.287 2.907-.662 6.558 1.519 8.872s5.789 3.155 8.768 2.043c3.166-1.182 5.038-2.462 8.437-2.75 3.574-.303 6.644-.17 9.781 1.845" class="d"/><path d="M437.959 644.75c2.281 1.327 3.326 2.209 5.288 2.234 1.238.016 2.459-.269 3.691-.394s2.541-.074 3.609.553c1.214.712 1.942 2.122 1.975 3.529s-.578 2.789-1.527 3.829-2.215 1.758-3.551 2.204a11.15 11.15 0 0 1-6.946.02c-2.239-.734-4.212-2.309-5.571-4.233l-20.921-12.901-11.127 39.669-20.532-6.029 17.483-39.703c3.366-8.053 8.687-12.152 17.387-6.615z" class="b"/><g clip-path="url(#v)" class="W"><path d="M452.522 650.671c-.031-1.406-.758-2.817-1.974-3.526-1.07-.63-2.378-.679-3.612-.557-1.229.129-2.451.41-3.692.397-1.962-.024-3.007-.91-5.286-2.236l-20.738-17.834c-8.703-5.537-14.026-1.443-17.388 6.612l-17.485 39.703 4.07 1.197 15.677-35.613c3.367-8.055 8.691-12.156 17.387-6.619l20.744 17.84c2.28 1.326 3.325 2.207 5.287 2.231 1.24.019 2.457-.269 3.691-.391 1.046-.11 2.146-.085 3.105.312.153-.489.226-1.002.214-1.516"/></g><path d="M404.888 677.391c-7.568-4.165-15.312-6.632-23.292-6.799l-8.461 29.454c-1.052 6.171 2.769 12.128 8.816 13.747 6.468 1.731 13.114-2.109 14.845-8.577z" fill="#9a4747"/><g clip-path="url(#w)" class="W"><path d="M389.38 680.043c-2.422-2.839-5.341-5.209-8.379-7.383l.594-2.068c7.981.166 15.725 2.633 23.293 6.799l-8.092 27.825c-1.384 5.171-5.911 8.652-10.975 8.96.008-.009.015-.018.023-.028 2.452-2.915 4.742-5.983 6.431-9.412 2.125-4.315 3.262-9.24 2.444-13.98-.688-3.979-2.718-7.641-5.339-10.713"/></g><g clip-path="url(#x)" class="W"><path d="M476.646 612.882l21.991-49.212c3.156-1.273 6.512-.88 9.818.149l-6.815 19.928-7.445 21.771c-2.161 6.321-5.241 13.531-11.712 15.187-5.766 1.475-11.482-2.249-16.097-6.007-13.203-10.75-24.887-23.464-39.266-32.582-21.933-13.908-49.608-18.432-74.828-12.231-3.195.786-6.608 1.695-9.941 2.098v-6.759c0-8.624 6.99-15.615 15.614-15.615h33.997c.455 0 .908.007 1.361.02 10.348.299 20.254 4.27 28.221 10.879z"/></g><path d="M950.518 795.769c0 22.29-26.88 40.358-60.038 40.358s-60.037-18.068-60.037-40.358 26.88-40.358 60.037-40.358c2.361 0 4.686.102 6.976.28l23.497-19.274-3.824 23.187c19.785 6.6 33.389 20.311 33.389 36.165" class="X"/><g class="e"><path d="M869.378 793.224h-18.939v4.176h18.939zm61.143 16.023h-80.082v4.176h80.082zm0-16.023h-51.043v4.176h51.043zm0-16.022h-80.082v4.176h80.082z"/></g><g clip-path="url(#y)" class="a"><path d="M950.518 795.769c0 4.067-.903 7.991-2.568 11.693-3.055-18.15-39.8-32.484-84.688-32.484-8.932 0-17.539.569-25.624 1.621 10.151-12.617 30.007-21.188 52.842-21.188 2.362 0 4.686.102 6.976.28l23.497-19.274-3.825 23.187c19.786 6.6 33.39 20.312 33.39 36.165"/></g></g></g></svg>