<svg xmlns="http://www.w3.org/2000/svg" width="100" height="100" fill="none" xmlns:v="https://vecta.io/nano"><g clip-path="url(#B)"><mask id="A" maskUnits="userSpaceOnUse" x="42" y="39" width="59" height="59" mask-type="alpha"><circle cx="71.417" cy="68.774" transform="rotate(23.035 71.417 68.774)" fill="#c4c4c4" r="22.186"/></mask><g mask="url(#A)"><path stroke="#000" stroke-width=".5" d="M-17.814 82.737L63.859-3.26M-4.332 94.176L77.341 8.179M-13.61 85.095L68.063-.902m-69.32 98.468l81.673-85.997m-90.95 76.915L71.139 2.487M1.818 100.955l81.673-85.997m-90.95 76.911L74.214 5.872M4.945 103.256l81.673-85.997M8.021 106.645l81.673-85.997m-78.596 89.386L92.77 24.037m-78.547 88.304l81.673-85.996m-77.519 89.437l81.673-85.997m-78.6 89.382l81.673-85.997m-78.545 88.306l81.673-85.997m-78.597 89.384l81.673-85.997m-78.598 89.38l81.673-85.997m-78.546 88.309l81.673-85.997m-68.243 98.518l81.673-85.996m-92.027 76.862l81.673-85.997m-68.244 98.516l81.673-85.996m-92.028 76.864l81.673-85.997m-68.19 97.441l81.673-85.997m-92.029 76.862l81.673-85.997m-68.243 98.517l81.673-85.997m-78.597 89.384l81.673-85.997m-78.545 88.304l81.672-85.997m-78.598 89.384l81.673-85.997m-78.597 89.382L150.59 78.63m-78.546 88.306l81.673-85.997m-78.598 89.385l81.673-85.997m-77.52 89.439l81.673-85.997m-78.546 88.3l81.673-85.997"/></g><path fill-rule="evenodd" d="M26.67 73.426c-1.704-6.098-.221-12.831 4.484-17.535s11.435-6.187 17.532-4.485c1.704 6.098.221 12.831-4.484 17.535s-11.434 6.187-17.532 4.485z" fill="#ee702e"/><g fill="#a4c5ff"><path d="M18.673 49.669c6.43-15.776 20.766-19.901 27.13-19.991l-10.31 16.801c-6.992-.796-14.127 1.796-16.82 3.191zm31.753 31.755c15.776-6.43 19.901-20.766 19.991-27.13l-16.801 10.31c.796 6.993-1.796 14.127-3.191 16.82z"/></g><path d="M87.824 12.323c-12.52-.317-40.764 6.068-53.579 34.14.559 2.009 2.85 7.2 7.544 11.894s9.886 6.986 11.894 7.545c28.072-12.815 34.457-41.059 34.14-53.579z" fill="#003ef5"/><path opacity=".3" fill-rule="evenodd" d="M49.27 63.978c26.077-12.155 34.359-36.88 35.698-51.616 1.022-.049 1.978-.06 2.856-.037.317 12.52-6.068 40.764-34.14 53.579-.921-.256-2.51-.876-4.414-1.925z" fill="#fff"/><g fill="#a4c5ff"><path d="M70.495 14.955c6.801-2.112 13.01-2.804 17.339-2.694.11 4.329-.582 10.538-2.694 17.339-1.483-2.548-3.574-5.484-6.368-8.277a40.87 40.87 0 0 0-8.277-6.368zM57.023 43.07c1.089 1.085-.088 2.263-.68 2.854-.92.92-4.788 4.386-9.29 8.419L33.462 66.631 45.749 53.04l8.419-9.29c.591-.591 1.769-1.769 2.855-.68z"/></g><circle cx="66.447" cy="33.648" transform="rotate(45 66.447 33.648)" fill="#ffc200" r="7.177"/><path d="M59.963 36.774a7.18 7.18 0 0 0 10.463-9.103 7.22 7.22 0 0 1 1.089.895c2.806 2.806 2.806 7.355 0 10.161s-7.355 2.806-10.161 0a7.17 7.17 0 0 1-1.39-1.953z" fill="#fff" fill-opacity=".5"/><path fill-rule="evenodd" d="M22.185 60.286a1 1 0 0 1 .014 1.414l-10.97 11.185a1 1 0 0 1-1.428-1.4l10.97-11.185a1 1 0 0 1 1.414-.014zm-3.806 13.011a1 1 0 0 1 .014 1.414l-9.179 9.359a1 1 0 0 1-1.428-1.4l9.179-9.359a1 1 0 0 1 1.414-.014zm12.09 6.848a1 1 0 0 1 .014 1.414l-4.254 4.337a1 1 0 1 1-1.428-1.4l4.254-4.337a1 1 0 0 1 1.414-.014zm8.731 0a1 1 0 0 1 .014 1.414L27.796 93.2a1 1 0 0 1-1.428-1.4l11.418-11.641a1 1 0 0 1 1.414-.014z" fill="#ee702e"/></g><defs><clipPath id="B"><path fill="#fff" d="M0 0h100v100H0z"/></clipPath></defs></svg>