<svg xmlns="http://www.w3.org/2000/svg" viewBox="0 0 58 64" xmlns:v="https://vecta.io/nano"><path d="M42.94 33.32l-.85-1.75a14.19 14.19 0 0 0-5.28-6L28.92 21a1.83 1.83 0 0 0-1.84-.19l-4.62 2.64v-.05l-4.55-7.9a5.85 5.85 0 0 0-1-1.33 4.36 4.36 0 0 0-.8-.62L8.15 9a5.56 5.56 0 0 0-3.7-.85l-2.3 1.39-.15.14A5.14 5.14 0 0 0 .56 13.6v10.46V27l21.79 36.57 21.43-11.06.51-.31V38.87a13.08 13.08 0 0 0-1.4-5.55" fill="#34a853"/><path d="M55.72 25.76L54.87 24a14.19 14.19 0 0 0-5.28-6l-7.89-4.57a1.83 1.83 0 0 0-1.84-.19l-4.62 2.64-12.82 7.51v.05l4.62-2.64a1.83 1.83 0 0 1 1.84.19l7.89 4.55a14.2 14.2 0 0 1 5.28 6l.85 1.75a13.06 13.06 0 0 1 1.4 5.55v13.34l9.76-6 3-1.83V31.24a13.08 13.08 0 0 0-1.4-5.55" fill="#72d37b"/><path d="M30.66 7.93a5.78 5.78 0 0 0-1.2-1.46 4.09 4.09 0 0 0-.65-.47l-7.88-4.56a4.93 4.93 0 0 0-4.51-.6l-.61.37L4.45 8.14a5.56 5.56 0 0 1 3.7.86L16 13.55a4.36 4.36 0 0 1 .8.62 5.87 5.87 0 0 1 1 1.33l4.55 7.9 12.81-7.51z" fill="#0d9158"/></svg>