<svg xmlns="http://www.w3.org/2000/svg" width="100" height="100" fill="none" xmlns:v="https://vecta.io/nano"><style><![CDATA[.B{stroke:#dce0df}.C{stroke-width:.5}.D{stroke-miterlimit:10}]]></style><mask id="A" maskUnits="userSpaceOnUse" x="50" y="50" width="45" height="45" mask-type="alpha"><circle cx="72.177" cy="72.678" r="22.177" fill="#c4c4c4"/></mask><g mask="url(#A)" class="B C D"><path d="M48.47 98.308l8.48-2.202m-7.309-2.019l4.239-1.102m-5.338-37.748l8.478-2.205M39.628 73.226l12.719-3.304m4.239-1.105l4.242-1.1m-26.176-4.956l16.958-4.407"/><path d="M55.851 57.257l4.239-1.102m-10.383-5.141l4.242-1.1m-7.744 13.763l12.722-3.302M53.516 65.7l12.719-3.304M51.178 74.142l4.241-1.1m-13.886 7.524l8.48-2.202m11.248-26.432l12.719-3.304m-23.101-1.833l12.719-3.304m-9.649 6.422l16.958-4.407M60.092 56.153l8.48-2.202m4.239-1.101l4.241-1.1m-13.891 7.522l8.48-2.202M44.604 83.69l12.719-3.305m4.235-1.106l4.241-1.1m4.243-1.102l8.48-2.202M61.127 95.067l12.719-3.304m4.241-1.097l4.239-1.102m-34.654-2.759l4.241-1.1m4.241-1.104l16.961-4.404m4.236-1.098l4.241-1.1m-31.58.366l16.958-4.407m4.241-1.098l4.239-1.102m-15.79.183l8.48-2.202m-7.311-2.021l8.478-2.205M50.744 89.928l12.719-3.304m4.244-1.103l12.719-3.305M53.818 93.051l16.96-4.404m4.238-1.106l12.719-3.304M59.959 99.289l8.478-2.205m4.242-1.098l4.239-1.102M66.234 62.395l12.719-3.304"/><path d="M83.193 57.988l4.241-1.1m4.24-1.103l8.48-2.202M82.761 73.774L95.48 70.47m-26.175-4.956l4.241-1.1m4.24-1.103l16.96-4.404m-23.101-1.834l16.958-4.407m4.241-1.102l4.239-1.102m-15.791.188l8.48-2.202m-17.394 20.19l12.719-3.305m4.239-1.102l12.719-3.304M75.449 71.755l16.96-4.404M81.592 77.997l8.478-2.205m4.242-1.098l4.239-1.102m-13.886 7.526l8.48-2.202m-1.62 19.986l8.478-2.205m-28.508 3.49l16.96-4.404"/><path d="M92.693 94.677l4.242-1.1m-15.793.188l8.478-2.205m-7.309-2.022l8.48-2.202M87.72 84.22l12.719-3.304"/><path d="M90.79 87.339l4.239-1.102m-1.902-7.342l16.961-4.404M93.863 90.46l12.719-3.304"/></g><path d="M20.901 26.164L72.655 10.5l3.224 60.447-51.755 15.664-3.223-60.447z" fill="#009fba"/><path d="M63.25 17.251l-36.212 9.77v63.757l50.644-13.572-.182-47.705-14.25-12.25z" fill="#87d2e2"/><g fill-rule="evenodd"><path d="M69.838 55.364l-33.187 9.273-.135-.482 33.187-9.273.135.482zm0-4.392l-33.187 9.273-.135-.481 33.187-9.273.135.482zm0-4.393l-33.187 9.273-.135-.481 33.187-9.273.135.481zm0-4.392L36.651 51.46l-.135-.482 33.187-9.273.135.481z" fill="#000"/><path d="M26.683 11.712c1.755 1.384 4.387 2.653 7.459 3.469 3.434.912 6.677 1.06 8.963.553v11.091c-.002 8.807-6.458 16.496-16.052 20.61C17.457 43.32 11.002 35.631 11 26.824V15.871c2.219.332 5.145.128 8.223-.689 3.073-.816 5.706-2.085 7.46-3.47z" fill="#cf4b3e"/><path d="M36.706 22.991a1.25 1.25 0 0 1 .031 1.767L26.689 35.163a1.25 1.25 0 0 1-1.798 0l-5.785-5.991a1.25 1.25 0 0 1 1.798-1.737l4.886 5.06 9.149-9.474a1.25 1.25 0 0 1 1.767-.031z" fill="#fcead3"/><path d="M49.313 66.532c.553-.549 1.29-.929 2.169-.727.212.049.39.14.493.301s.095.343.061.482a1.72 1.72 0 0 1-.158.381l-.06.111-.09.174c-.921 2.065-2.316 3.812-3.989 5.299l-.011.174c-.043.817.041 1.49.296 1.876a.75.75 0 0 0 .48.343c.213.047.507.025.908-.125.629-.234 1.257-.779 1.826-1.442a1.08 1.08 0 0 1-.488-.847c-.035-.482.037-.953.259-1.356s.591-.727 1.11-.912c.268-.096.499-.149.691-.152s.387.046.512.21c.121.159.12.357.086.523-.035.172-.117.364-.226.563-.281.512-.666 1.141-1.123 1.748a2.61 2.61 0 0 0 .275.029c.643.035 1.369-.129 1.725-.299.51-.245.873-.624 1.216-1.064l.31-.415.772-.958.005-.005.124-.127.04-.038h0c.004-.004.021-.019.044-.032a.25.25 0 0 1 .129-.035.25.25 0 0 1 .25.247c.001.052-.016.092-.018.098v.001c-.005.013-.01.023-.013.028l-.015.025-.024.036-.004.006-.056.084a1.25 1.25 0 0 0-.085.153c.431.19 1.033.151 1.662-.043.666-.205 1.296-.563 1.662-.884.099-.087.19-.167.31-.209.097-.034.206-.039.317-.043l.044-.002c.867-.042 1.801-.373 2.655-.675l.033-.011c.256-.091.619-.273 1.021-.476l.514-.256.844-.372c.246-.09.509-.163.719-.134.216.029.463-.01.743-.105s.573-.238.878-.401l.405-.222.506-.276c.298-.156.601-.297.888-.375a.25.25 0 1 1 .13.483c-.232.063-.495.183-.786.335l-.483.263-.425.233a6.46 6.46 0 0 1-.954.433c-.318.108-.649.17-.97.127-.075-.01-.233.018-.481.108-.234.086-.508.212-.796.352l-.472.236-1.115.519-.064.023c-.831.294-1.825.647-2.766.692l-.042.002-.124.007c-.036.003-.049.007-.055.009a.58.58 0 0 0-.145.113c-.425.373-1.12.763-1.845.986-.715.22-1.528.298-2.145-.044-.022-.012-.043-.026-.061-.042l-.323.431-.345.461c-.361.463-.782.913-1.394 1.207-.437.21-1.248.387-1.968.348a2.77 2.77 0 0 1-.593-.092c-.618.739-1.345 1.406-2.127 1.698-.454.169-.851.22-1.191.145a1.25 1.25 0 0 1-.79-.556c-.308-.468-.4-1.156-.388-1.878-2.806 2.33-6.293 3.991-9.631 5.233a.25.25 0 1 1-.174-.469c3.476-1.293 7.054-3.024 9.844-5.454a17.6 17.6 0 0 1 .88-3.899c.229-.599.626-1.335 1.176-1.881zm-1.492 5.269c1.443-1.362 2.64-2.931 3.451-4.75a3.45 3.45 0 0 1 .119-.232l.045-.084c.056-.105.096-.193.114-.266s.005-.091.003-.094h0c-.003-.005-.035-.049-.184-.083-.654-.15-1.224.117-1.705.594s-.848 1.147-1.061 1.705c-.184.482-.592 1.849-.783 3.21zm3.736 1.189c.483-.622.893-1.286 1.187-1.822.098-.178.153-.32.175-.423.015-.075.009-.108.006-.118-.01-.005-.04-.015-.107-.014-.112.002-.284.035-.53.123-.412.147-.679.389-.84.682s-.228.668-.198 1.08c.017.23.125.382.303.49zm1.372-2.36z" fill="#000"/></g><path d="M77.5 29.5L63.25 17.25 63 34.5l14.5-5z" fill="#245d77"/></svg>