<svg xmlns="http://www.w3.org/2000/svg" viewBox="0 0 112.197 112.197" xmlns:v="https://vecta.io/nano"><circle cx="56.099" cy="56.098" r="56.098" fill="#55acee"/><path d="M90.461 40.316c-2.404 1.066-4.99 1.787-7.702 2.109 2.769-1.659 4.894-4.284 5.897-7.417-2.591 1.537-5.462 2.652-8.515 3.253-2.446-2.605-5.931-4.233-9.79-4.233-7.404 0-13.409 6.005-13.409 13.409 0 1.051.119 2.074.349 3.056-11.144-.559-21.025-5.897-27.639-14.012a13.35 13.35 0 0 0-1.816 6.742c0 4.651 2.369 8.757 5.965 11.161-2.197-.069-4.266-.672-6.073-1.679l-.001.17a13.42 13.42 0 0 0 10.757 13.147 13.36 13.36 0 0 1-3.532.471c-.866 0-1.705-.083-2.523-.239 1.706 5.326 6.657 9.203 12.526 9.312-4.59 3.597-10.371 5.74-16.655 5.74a27 27 0 0 1-3.197-.188 37.93 37.93 0 0 0 20.553 6.025c24.664 0 38.152-20.432 38.152-38.153a38.35 38.35 0 0 0-.039-1.734 27.19 27.19 0 0 0 6.692-6.94h0z" fill="#f1f2f2"/></svg>