<svg xmlns="http://www.w3.org/2000/svg" viewBox="0 0 512 512" xmlns:v="https://vecta.io/nano"><circle cx="256" cy="256" r="256" fill="#88c5cc"/><path d="M100 396c-15.436 0-28-12.564-28-28V140c0-15.436 8.564-24 24-24h316c15.436 0 28 12.564 28 28v224c0 15.436-12.564 28-28 28H100z" fill="#ccc"/><circle cx="95.812" cy="140" r="8" fill="#cc584c"/><circle cx="119.812" cy="140" r="8" fill="#ffd464"/><circle cx="143.812" cy="140" r="8" fill="#198058"/><path d="M403.812 144c0 2.2-1.8 4-4 4h-232c-2.2 0-4-1.8-4-4v-8c0-2.2 1.8-4 4-4h232c2.2 0 4 1.8 4 4v8zM424 372c0 4.4-3.6 8-8 8H96c-4.4 0-8-3.6-8-8V172c0-4.4 3.6-8 8-8h320c4.4 0 8 3.6 8 8v200z" fill="#f5f5f5"/><path d="M160 356c0 4.4-3.6 8-8 8h-40c-4.4 0-8-3.6-8-8V188c0-4.4 3.6-8 8-8h40c4.4 0 8 3.6 8 8v168zm240-176c4.4 0 8 3.6 8 8v40a8.02 8.02 0 0 1-8 8H184a8.02 8.02 0 0 1-8-8v-40c0-4.4 3.6-8 8-8h216z" fill="#406a80"/><path d="M176 248h232v8H176zm0 12h232v8H176zm0 12h232v8H176zm0 12h52v52h-52z" fill="#b3b3b3"/><path d="M236 284h52v52h-52z" fill="#e16b5a"/><path d="M296 284h52v52h-52zm60 0h52v52h-52z" fill="#b3b3b3"/></svg>